<?xml version="1.0" encoding="UTF-8"?>
<svg version="1.1" xmlns="http://www.w3.org/2000/svg" width="500" height="500">
<path d="M0 0 C1.91682126 -0.00435569 3.83364078 -0.00954167 5.75045776 -0.01548767 C10.92210478 -0.02879713 16.09367835 -0.02946534 21.26533914 -0.02692437 C25.59890165 -0.02584911 29.93244965 -0.03075218 34.26600903 -0.03552979 C44.49847687 -0.04659726 54.73090799 -0.04707804 64.96337891 -0.04101562 C75.48286552 -0.03497852 86.00221829 -0.04728657 96.52168208 -0.06858569 C105.58709602 -0.08625878 114.65246757 -0.09219406 123.71789807 -0.08894795 C129.11735663 -0.08714395 134.5167197 -0.08968242 139.91616249 -0.10366249 C144.9978778 -0.11632941 150.07938598 -0.11421375 155.16109848 -0.1012516 C157.01366817 -0.0989054 158.86625285 -0.10154924 160.71880531 -0.10987473 C187.7065931 -0.22230466 212.28557987 6.49043495 232.07592773 25.63305664 C248.49395058 42.28887825 257.79430833 63.76865104 257.87109375 87.22314453 C257.87766495 88.10379578 257.88423615 88.98444702 257.89100647 89.89178467 C257.91065844 92.79675398 257.92238886 95.70167159 257.93237305 98.60668945 C257.93644857 99.60599676 257.9405241 100.60530407 257.94472313 101.63489342 C257.96555725 106.93237472 257.97986607 112.22983039 257.98925781 117.52734375 C258.00026954 122.95582139 258.03461633 128.38388319 258.07442951 133.81221485 C258.1007901 138.02229994 258.10896712 142.23228925 258.11253929 146.44244957 C258.11736136 148.44080069 258.12884738 150.43914883 258.14757729 152.43741798 C258.28214598 167.75602572 257.43051418 183.06164183 249.8190918 196.7746582 C249.47031982 197.43353027 249.12154785 198.09240234 248.76220703 198.77124023 C237.51816188 219.69099388 220.37897144 235.51586526 197.6940918 243.2746582 C187.05735461 246.29681463 176.86356622 247.85063288 165.82662964 248.20101929 C121.11983868 249.70083836 74.99264413 262.17319034 38.6940918 289.2746582 C37.65897461 290.04036133 36.62385742 290.80606445 35.55737305 291.5949707 C32.22188721 294.09584077 28.94762155 296.66833075 25.6940918 299.2746582 C25.16702637 299.69585937 24.63996094 300.11706055 24.09692383 300.55102539 C16.40827465 306.7464343 9.35218223 313.43543049 2.4543457 320.5 C1.84768066 321.12044189 1.24101562 321.74088379 0.6159668 322.38012695 C-0.19469238 323.2177356 -0.19469238 323.2177356 -1.02172852 324.07226562 C-2.3059082 325.2746582 -2.3059082 325.2746582 -3.3059082 325.2746582 C-3.3059082 299.5346582 -3.3059082 273.7946582 -3.3059082 247.2746582 C-9.9059082 247.2746582 -16.5059082 247.2746582 -23.3059082 247.2746582 C-47.87315656 242.77642963 -69.10518693 231.24222938 -83.94262695 210.75512695 C-98.53731296 189.45358343 -100.4622181 166.73849489 -100.47387695 141.7746582 C-100.47710198 140.1242673 -100.48046691 138.47387667 -100.48396301 136.82348633 C-100.48990215 133.38793272 -100.49180817 129.95240407 -100.49121094 126.5168457 C-100.49110922 122.15337546 -100.50479557 117.79006754 -100.52198315 113.42663574 C-100.53319223 110.02562753 -100.53512749 106.62465759 -100.53460121 103.22363281 C-100.53576663 101.61636798 -100.54010556 100.00910166 -100.54793358 98.40185547 C-100.60516972 85.44659208 -100.00392944 72.71135886 -95.7434082 60.3371582 C-95.4851123 59.584104 -95.22681641 58.8310498 -94.96069336 58.05517578 C-87.21978025 36.63804839 -70.71777271 18.84102176 -50.28613281 8.95458984 C-33.79457527 1.28487129 -17.91444712 -0.02709872 0 0 Z " fill="#5BE0E4" transform="translate(138.305908203125,129.725341796875)"/>
<path d="M0 0 C1.25552421 -0.00657338 1.25552421 -0.00657338 2.53641254 -0.01327956 C5.33407659 -0.02660659 8.13170919 -0.03283281 10.92939758 -0.03897095 C12.93883911 -0.0468771 14.94827924 -0.05514637 16.9577179 -0.06375122 C23.55413975 -0.08992516 30.15056777 -0.1052803 36.74702454 -0.11953735 C39.02432064 -0.12490008 41.3016167 -0.13027759 43.57891273 -0.13566971 C53.0607724 -0.15729702 62.5426304 -0.17602872 72.02450848 -0.1872921 C85.5744104 -0.20349745 99.12402405 -0.23659405 112.67381734 -0.29369295 C122.22065302 -0.33253815 131.7674121 -0.35194233 141.31432468 -0.35721266 C147.0052712 -0.36084789 152.69590995 -0.3726724 158.38677025 -0.4053154 C163.75246132 -0.43565114 169.11766252 -0.44161792 174.48342133 -0.42993164 C176.43794658 -0.42971298 178.39249627 -0.43784267 180.34694099 -0.45558548 C207.47594084 -0.68817955 229.29821685 7.48423686 249.23530579 26.34140015 C265.02166383 42.62891242 273.64963319 64.52360526 273.72480774 87.12411499 C273.73137894 87.99515869 273.73795013 88.86620239 273.74472046 89.76364136 C273.76433824 92.6307079 273.77609418 95.49772218 273.78608704 98.36483765 C273.79016256 99.35219532 273.79423809 100.33955299 273.79843712 101.3568306 C273.81925517 106.58947791 273.83357176 111.82209937 273.8429718 117.05477905 C273.85398952 122.41484888 273.88834807 127.77449826 273.9281435 133.13442039 C273.95450545 137.2938912 273.96268115 141.45326508 273.96625328 145.61281204 C273.97107376 147.58604374 273.98255502 149.55927248 274.00129128 151.53242111 C274.14948916 168.18243252 272.45022928 183.19747286 264.54780579 198.15390015 C264.16882141 198.91831421 263.78983704 199.68272827 263.39936829 200.4703064 C255.27228298 216.15176294 241.92361792 228.73148076 226.54780579 237.15390015 C225.22298469 237.51960213 223.89051271 237.86059654 222.54780579 238.15390015 C222.53971893 237.29771591 222.53163208 236.44153168 222.52330017 235.55940247 C222.44482911 227.42592735 222.35738802 219.29260608 222.2602787 211.15933132 C222.21067887 206.97957506 222.16435103 202.79983976 222.12593079 198.6199646 C222.08861246 194.57384984 222.04213822 190.52792785 221.98974228 186.48198128 C221.97144194 184.950943 221.95624791 183.4198638 221.94446182 181.88876152 C221.69966136 151.1399823 213.27700723 123.50033732 191.73530579 100.84140015 C167.74743872 78.0473305 138.3869981 71.81577568 106.36030579 71.89511108 C104.49230311 71.89239362 102.6243015 71.88882849 100.75630188 71.88449097 C95.73151467 71.87545445 90.70681056 71.87887477 85.68202209 71.88524914 C80.39379166 71.89035479 75.10556778 71.88560511 69.81733704 71.88247681 C60.94102212 71.87885036 52.06474062 71.88360142 43.18843079 71.89315796 C32.96371787 71.90403993 22.73908476 71.90051342 12.51437378 71.88950515 C3.69518354 71.88039446 -5.12398284 71.87916541 -13.94317627 71.88438249 C-19.19277756 71.88748147 -24.4423415 71.88796907 -29.69194031 71.88130951 C-34.63002714 71.87548135 -39.56801227 71.87963174 -44.50608826 71.89109802 C-46.30544365 71.89371562 -48.10480777 71.89302998 -49.90415955 71.88857269 C-60.9154308 71.86383574 -71.56033344 72.50244223 -82.45219421 74.15390015 C-84.96954788 66.60183913 -78.17028293 54.23468509 -74.77690125 47.23934937 C-63.42955034 25.30891644 -43.84072414 10.56608702 -20.66874695 2.96762085 C-13.7605665 0.80278495 -7.24996226 0.00465648 0 0 Z " fill="#0096B1" transform="translate(187.4521942138672,44.846099853515625)"/>
<path d="M0 0 C0.33 0 0.66 0 1 0 C1 3.3 1 6.6 1 10 C0.34 10 -0.32 10 -1 10 C-1 10.99 -1 11.98 -1 13 C-0.41762135 12.83765309 0.16475731 12.67530617 0.7647838 12.50803965 C4.28735742 11.70739805 7.8387852 11.85935871 11.4332428 11.86628723 C12.2920898 11.86402167 13.15093679 11.86175612 14.03580946 11.85942191 C16.91849921 11.85308318 19.80114193 11.85391118 22.68383789 11.85473633 C24.74850017 11.85174483 26.81316189 11.84834232 28.87782288 11.84455872 C34.48918172 11.83571535 40.10052532 11.83338051 45.71189046 11.83274293 C50.39168314 11.83179427 55.07147225 11.82811662 59.75126356 11.82457083 C70.7870584 11.81642562 81.82284508 11.81398673 92.85864258 11.81469727 C104.25692118 11.81529865 115.65515254 11.8047348 127.05341917 11.7889536 C136.83011348 11.77589802 146.60679231 11.77051251 156.38349527 11.77115268 C162.22698942 11.77140817 168.07044158 11.76852846 173.91392708 11.75797462 C179.40582704 11.7483265 184.89764456 11.74819177 190.38954735 11.75549126 C192.40882614 11.75654108 194.42810998 11.75415081 196.44738007 11.7481308 C199.1962654 11.74046414 201.94486215 11.74502005 204.69374084 11.75276184 C205.49937298 11.74761828 206.30500512 11.74247471 207.13505036 11.73717529 C210.95939578 11.76110307 212.73968963 11.82645976 216 14 C214.96854103 13.99815641 213.93708206 13.99631283 212.87436676 13.99441338 C187.72467144 13.94992569 162.57498124 13.91710652 137.42525482 13.89637566 C125.26281838 13.88608275 113.10040799 13.87206054 100.93798828 13.84912109 C90.33169394 13.82912626 79.72541848 13.81626914 69.11910582 13.81182301 C63.50819783 13.80922592 57.89734385 13.80316337 52.28645325 13.78853989 C46.9940209 13.77485951 41.70166428 13.77079828 36.40921593 13.77378464 C34.47763849 13.77323912 32.54605825 13.76932447 30.61449623 13.76158905 C19.23104864 13.71827758 8.26330002 14.26042295 -3 16 C-4.31225809 12.06322574 -3.3393954 10.2205738 -2.0625 6.3125 C-1.68222656 5.13300781 -1.30195312 3.95351562 -0.91015625 2.73828125 C-0.60980469 1.83464844 -0.30945313 0.93101563 0 0 Z " fill="#075D6C" transform="translate(108,103)"/>
<path d="M0 0 C0.33 0 0.66 0 1 0 C1.02319226 11.61364347 1.04095019 23.22728141 1.05181217 34.84094334 C1.05702593 40.23389569 1.06409622 45.62683217 1.07543945 51.01977539 C1.08632188 56.22634474 1.0922882 61.43289884 1.09487724 66.63947868 C1.09672184 68.62374041 1.10032385 70.60800133 1.10573006 72.59225655 C1.11301155 75.37605707 1.11398794 78.15979497 1.11352539 80.94360352 C1.11712067 81.76000305 1.12071594 82.57640259 1.12442017 83.4175415 C1.11611672 88.04985929 0.76774835 92.43003995 0 97 C-0.33 97 -0.66 97 -1 97 C-1.79436696 92.10004986 -2.13057841 87.42985171 -2.14526367 82.45092773 C-2.14862228 81.73112228 -2.1519809 81.01131683 -2.15544128 80.2696991 C-2.16488018 77.90764603 -2.16689126 75.54566447 -2.16796875 73.18359375 C-2.17118776 71.52319816 -2.1745523 69.86280285 -2.17805481 68.20240784 C-2.18402958 64.72501978 -2.18589657 61.2476565 -2.18530273 57.77026367 C-2.18520156 53.35166317 -2.19881484 48.93322496 -2.21607494 44.51466274 C-2.22729254 41.08361609 -2.22921892 37.65260736 -2.22869301 34.22154427 C-2.22985998 32.59474189 -2.23420808 30.96793811 -2.24202538 29.3411541 C-2.28551223 19.35157285 -1.73745266 9.86725674 0 0 Z " fill="#4D9498" transform="translate(40,199)"/>
<path d="M0 0 C1.25552421 -0.00657338 1.25552421 -0.00657338 2.53641254 -0.01327956 C5.33407659 -0.02660659 8.13170919 -0.03283281 10.92939758 -0.03897095 C12.93883911 -0.0468771 14.94827924 -0.05514637 16.9577179 -0.06375122 C23.55413975 -0.08992516 30.15056777 -0.1052803 36.74702454 -0.11953735 C39.02432064 -0.12490008 41.3016167 -0.13027759 43.57891273 -0.13566971 C53.0607724 -0.15729702 62.5426304 -0.17602872 72.02450848 -0.1872921 C85.5744104 -0.20349745 99.12402405 -0.23659405 112.67381734 -0.29369295 C122.22065302 -0.33253815 131.7674121 -0.35194233 141.31432468 -0.35721266 C147.0052712 -0.36084789 152.69590995 -0.3726724 158.38677025 -0.4053154 C163.75246132 -0.43565114 169.11766252 -0.44161792 174.48342133 -0.42993164 C176.43794658 -0.42971298 178.39249627 -0.43784267 180.34694099 -0.45558548 C193.37550653 -0.56728761 205.19043386 0.8127888 217.54780579 5.15390015 C218.53780579 6.14390015 218.53780579 6.14390015 219.54780579 7.15390015 C214.99694182 6.84840233 210.84284548 6.42827773 206.61030579 4.65390015 C199.3880136 1.68588498 191.18939582 2.00474356 183.48674011 2.03364563 C182.63290053 2.03279121 181.77906094 2.03193678 180.89934742 2.03105646 C178.06974243 2.0294238 175.24019819 2.03488639 172.41059875 2.04037476 C170.36974082 2.04065713 168.32888278 2.04049791 166.2880249 2.03993225 C160.77018904 2.03964625 155.25237507 2.04551114 149.73454428 2.05250621 C143.95966294 2.05877254 138.18478106 2.05934614 132.40989685 2.06053162 C121.48439915 2.06363527 110.55891149 2.07183563 99.6334182 2.08188111 C87.1908609 2.09307225 74.74830311 2.09856025 62.30574203 2.10357654 C36.71975772 2.11401906 11.13378231 2.13159978 -14.45219421 2.15390015 C-14.45219421 1.82390015 -14.45219421 1.49390015 -14.45219421 1.15390015 C-9.61617985 0.1944575 -4.91215818 0.00315496 0 0 Z " fill="#278293" transform="translate(187.4521942138672,44.846099853515625)"/>
<path d="M0 0 C5.52704144 11.05408288 4.27734438 23.93895459 4.23046875 35.98828125 C4.22927459 38.02084829 4.22882429 40.0534159 4.2290802 42.08598328 C4.22752332 46.32631939 4.21929231 50.56657012 4.20581055 54.80688477 C4.18876758 60.23501771 4.18499826 65.6630576 4.18575573 71.09121418 C4.18548363 75.28025699 4.17999693 79.46927958 4.17275429 83.65831566 C4.16957949 85.66014643 4.167603 87.66197948 4.16686058 89.66381264 C4.16468746 92.45861331 4.15592375 95.25331614 4.14526367 98.0480957 C4.14571686 98.8695105 4.14617004 99.69092529 4.14663696 100.53723145 C4.12290652 104.80179107 3.84497345 108.79940018 3 113 C2.67 113 2.34 113 2 113 C2 79.67 2 46.34 2 12 C1.34 12 0.68 12 0 12 C0 8.04 0 4.08 0 0 Z " fill="#13798A" transform="translate(457,108)"/>
<path d="M0 0 C2.35078429 3.52617644 2.24370599 4.95164881 2.22705078 9.1237793 C2.22689972 10.38486008 2.22674866 11.64594086 2.22659302 12.94523621 C2.21637976 14.32156532 2.20594777 15.69789283 2.1953125 17.07421875 C2.19158172 18.48240458 2.18873506 19.890593 2.18673706 21.29878235 C2.17910564 25.0027281 2.15946148 28.70651668 2.1373291 32.41040039 C2.11686003 36.19089634 2.10773308 39.97141772 2.09765625 43.75195312 C2.07621504 51.16804036 2.04208513 58.58399814 2 66 C2.99 66 3.98 66 5 66 C5 65.34 5 64.68 5 64 C5.99 64 6.98 64 8 64 C8.226875 63.360625 8.45375 62.72125 8.6875 62.0625 C10 60 10 60 12.625 59.25 C13.40875 59.1675 14.1925 59.085 15 59 C15 58.34 15 57.68 15 57 C15.99 57 16.98 57 18 57 C18.33 55.68 18.66 54.36 19 53 C20.32 53.33 21.64 53.66 23 54 C7.57142857 69 7.57142857 69 0 69 C0 46.23 0 23.46 0 0 Z " fill="#096C7D" transform="translate(410,214)"/>
<path d="M0 0 C0.33 0 0.66 0 1 0 C1 3.3 1 6.6 1 10 C0.34 10 -0.32 10 -1 10 C-1 10.99 -1 11.98 -1 13 C-0.45728455 12.83734146 0.08543091 12.67468292 0.64459229 12.50709534 C3.38678165 11.91672984 5.88048545 11.88026656 8.68652344 11.88647461 C9.82740417 11.88655014 10.96828491 11.88662567 12.14373779 11.88670349 C13.36989807 11.89186478 14.59605835 11.89702606 15.859375 11.90234375 C17.11888977 11.9037587 18.37840454 11.90517365 19.67608643 11.90663147 C23.01665119 11.91127927 26.35714721 11.92025719 29.69769287 11.93133545 C33.1096538 11.94158402 36.52162185 11.94613646 39.93359375 11.95117188 C46.6224148 11.96220037 53.31120343 11.97893811 60 12 C60 12.33 60 12.66 60 13 C59.44671021 13.00808685 58.89342041 13.01617371 58.32336426 13.02450562 C52.4814844 13.11162976 46.63990285 13.21115674 40.79833984 13.31738281 C38.62814406 13.35529297 36.4578935 13.3902063 34.28759766 13.421875 C21.72346899 13.60740897 9.42761816 14.0429491 -3 16 C-4.31225809 12.06322574 -3.3393954 10.2205738 -2.0625 6.3125 C-1.68222656 5.13300781 -1.30195312 3.95351562 -0.91015625 2.73828125 C-0.60980469 1.83464844 -0.30945313 0.93101563 0 0 Z " fill="#0C6D7F" transform="translate(108,103)"/>
<path d="M0 0 C0.66 0.33 1.32 0.66 2 1 C0 4 0 4 -2.5 5.375 C-5.49615086 7.32249806 -5.72556359 8.77142776 -7 12 C-9.0625 12.625 -9.0625 12.625 -11 13 C-11.33 13.99 -11.66 14.98 -12 16 C-12.66 16 -13.32 16 -14 16 C-14.2475 16.9075 -14.495 17.815 -14.75 18.75 C-16.06050513 22.15731334 -17.4287784 23.51172103 -20 26 C-20.144375 26.70125 -20.28875 27.4025 -20.4375 28.125 C-20.623125 28.74375 -20.80875 29.3625 -21 30 C-23.5625 31.25 -23.5625 31.25 -26 32 C-21.28732987 19.13691485 -10.38391888 8.54480518 0 0 Z " fill="#53B2B3" transform="translate(74,147)"/>
<path d="M0 0 C0.33 0 0.66 0 1 0 C1 24.09 1 48.18 1 73 C2.32 73.33 3.64 73.66 5 74 C3.35 75.32 1.7 76.64 0 78 C0 52.26 0 26.52 0 0 Z " fill="#75C8CC" transform="translate(135,377)"/>
<path d="M0 0 C0.66 0.33 1.32 0.66 2 1 C1.67 2.65 1.34 4.3 1 6 C-0.98 6.33 -2.96 6.66 -5 7 C-5.0825 7.58652344 -5.165 8.17304687 -5.25 8.77734375 C-6.22250048 11.65938945 -7.63987616 12.67861543 -10 14.5625 C-13.31662334 17.17062598 -13.31662334 17.17062598 -15 21 C-17.5625 22.1875 -17.5625 22.1875 -20 23 C-15.85923587 13.72121964 -7.70482777 6.35693828 0 0 Z " fill="#0C798D" transform="translate(138,62)"/>
<path d="M0 0 C1.32 0.33 2.64 0.66 4 1 C-10.7106599 15 -10.7106599 15 -18 15 C-17.67 14.01 -17.34 13.02 -17 12 C-16.01 12.33 -15.02 12.66 -14 13 C-14 12.34 -14 11.68 -14 11 C-13.01 11 -12.02 11 -11 11 C-10.773125 10.360625 -10.54625 9.72125 -10.3125 9.0625 C-9 7 -9 7 -6.375 6.25 C-5.199375 6.12625 -5.199375 6.12625 -4 6 C-4 5.34 -4 4.68 -4 4 C-3.01 4 -2.02 4 -1 4 C-0.67 2.68 -0.34 1.36 0 0 Z " fill="#0F7282" transform="translate(429,267)"/>
<path d="M0 0 C0.99 0.33 1.98 0.66 3 1 C1.88096454 2.81618856 0.75458716 4.62785526 -0.375 6.4375 C-1.00148438 7.44683594 -1.62796875 8.45617187 -2.2734375 9.49609375 C-4 12 -4 12 -6 13 C-5.979375 12.278125 -5.95875 11.55625 -5.9375 10.8125 C-5.99820559 8.08074862 -6.39258535 5.65743909 -7 3 C-3.535 2.505 -3.535 2.505 0 2 C0 1.34 0 0.68 0 0 Z " fill="#56CBCD" transform="translate(383,330)"/>
<path d="M0 0 C2.61604171 3.92406257 4.18222992 6.77494202 4.5625 11.5 C4.75150664 13.7526506 4.94552774 15.8051274 5.5546875 17.984375 C6.08757514 20.39639276 5.88577364 22.30748803 5.5625 24.75 C5.46066406 25.54921875 5.35882813 26.3484375 5.25390625 27.171875 C5.17011719 27.77515625 5.08632813 28.3784375 5 29 C4.67 29 4.34 29 4 29 C3.89042969 28.06800781 3.78085937 27.13601562 3.66796875 26.17578125 C2.70538346 18.43596948 1.43165984 10.98494969 -0.51171875 3.4140625 C-0.67285156 2.61742187 -0.83398438 1.82078125 -1 1 C-0.67 0.67 -0.34 0.34 0 0 Z " fill="#0F7185" transform="translate(405,183)"/>
<path d="M0 0 C6.37748744 -0.27984356 11.74109886 0.67960496 17.875 2.375 C18.72835938 2.59671875 19.58171875 2.8184375 20.4609375 3.046875 C26.73434118 4.73434118 26.73434118 4.73434118 29 7 C24.44913603 6.69450219 20.2950397 6.27437758 16.0625 4.5 C12.10233577 2.85059558 8.36291959 2.52627917 4.1015625 2.30859375 C2 2 2 2 0 0 Z " fill="#106D7F" transform="translate(378,45)"/>
<path d="M0 0 C2.62212615 5.2442523 3.12425569 8.66374895 3.09765625 14.515625 C3.09443359 15.76601562 3.09121094 17.01640625 3.08789062 18.3046875 C3.07951172 19.60664062 3.07113281 20.90859375 3.0625 22.25 C3.05798828 23.56742188 3.05347656 24.88484375 3.04882812 26.2421875 C3.03704316 29.49483741 3.02059011 32.74739584 3 36 C2.67 36 2.34 36 2 36 C2 28.08 2 20.16 2 12 C1.34 12 0.68 12 0 12 C0 8.04 0 4.08 0 0 Z " fill="#108EA4" transform="translate(457,108)"/>
<path d="M0 0 C6.15234375 -0.09765625 6.15234375 -0.09765625 8 0 C8.33 0.33 8.66 0.66 9 1 C10.68608966 1.07205511 12.37500659 1.08386068 14.0625 1.0625 C14.98160156 1.05347656 15.90070313 1.04445313 16.84765625 1.03515625 C17.55792969 1.02355469 18.26820313 1.01195313 19 1 C18.34 2.65 17.68 4.3 17 6 C16.35933594 5.80664062 15.71867187 5.61328125 15.05859375 5.4140625 C10.04889015 3.9059252 5.03460143 2.42282214 0 1 C0 0.67 0 0.34 0 0 Z " fill="#0B7186" transform="translate(333,119)"/>
<path d="M0 0 C4.10110762 1.40398279 6.98089159 3.37087038 10.3125 6.125 C11.19550781 6.84945312 12.07851563 7.57390625 12.98828125 8.3203125 C13.65214844 8.87460938 14.31601562 9.42890625 15 10 C14.34 10.66 13.68 11.32 13 12 C11 10.625 11 10.625 9 9 C9 8.34 9 7.68 9 7 C8.443125 6.9175 7.88625 6.835 7.3125 6.75 C4.26322081 5.76104459 2.34810037 4.15242534 0 2 C0 1.34 0 0.68 0 0 Z " fill="#0E707F" transform="translate(417,57)"/>
<path d="M0 0 C0.33 0 0.66 0 1 0 C1 3.3 1 6.6 1 10 C0.34 10 -0.32 10 -1 10 C-0.2236068 13.0745356 -0.2236068 13.0745356 2 15 C0.35 15.33 -1.3 15.66 -3 16 C-4.31225809 12.06322574 -3.3393954 10.2205738 -2.0625 6.3125 C-1.68222656 5.13300781 -1.30195312 3.95351562 -0.91015625 2.73828125 C-0.60980469 1.83464844 -0.30945313 0.93101563 0 0 Z " fill="#0D6171" transform="translate(108,103)"/>
<path d="M0 0 C1.26916725 3.80750174 0.47776092 5.3102571 -0.8125 9.0625 C-1.16957031 10.12597656 -1.52664063 11.18945312 -1.89453125 12.28515625 C-3 15 -3 15 -5 17 C-5.23509196 12.18061476 -4.45184478 8.53701494 -3 4 C-2.34 4 -1.68 4 -1 4 C-0.67 2.68 -0.34 1.36 0 0 Z " fill="#0E687C" transform="translate(458,222)"/>
<path d="M0 0 C3 1 3 1 5 4 C5 5.32 5 6.64 5 8 C6.32 8.66 7.64 9.32 9 10 C8.67 11.32 8.34 12.64 8 14 C6.84669053 12.42210402 5.70262073 10.8374518 4.5625 9.25 C3.92441406 8.36828125 3.28632812 7.4865625 2.62890625 6.578125 C1.1724919 4.27300875 0.44068179 2.65650428 0 0 Z " fill="#4CA0A2" transform="translate(48,328)"/>
<path d="M0 0 C-0.99 0.33 -1.98 0.66 -3 1 C-3.268125 1.66 -3.53625 2.32 -3.8125 3 C-4.204375 3.66 -4.59625 4.32 -5 5 C-8.125 5.75 -8.125 5.75 -11 6 C-11.33 5.34 -11.66 4.68 -12 4 C-10.56988027 3.13353333 -9.13059381 2.28218171 -7.6875 1.4375 C-6.48673828 0.72400391 -6.48673828 0.72400391 -5.26171875 -0.00390625 C-3 -1 -3 -1 0 0 Z " fill="#0A7386" transform="translate(156,54)"/>
<path d="M0 0 C-3.46741134 2.95749791 -6.86873527 5.07848152 -11 7 C-10.67 5.02 -10.34 3.04 -10 1 C-6.59437148 0.22157062 -3.49234244 -0.09978121 0 0 Z " fill="#56BBBC" transform="translate(188,411)"/>
<path d="M0 0 C3.66060821 0.58536753 5.54535164 2.083239 8.25 4.5625 C8.95640625 5.20316406 9.6628125 5.84382812 10.390625 6.50390625 C10.92171875 6.99761719 11.4528125 7.49132812 12 8 C11.01 8.495 11.01 8.495 10 9 C7.875 8.0625 7.875 8.0625 6 7 C6 6.34 6 5.68 6 5 C5.195625 4.731875 4.39125 4.46375 3.5625 4.1875 C2.716875 3.795625 1.87125 3.40375 1 3 C0.67 2.01 0.34 1.02 0 0 Z " fill="#4EA3A9" transform="translate(359,148)"/>
<path d="M0 0 C0.66 0.33 1.32 0.66 2 1 C2 3.3125 2 3.3125 1 6 C-2.52143981 8.02127487 -5.95264611 9 -10 9 C-6.7 6.03 -3.4 3.06 0 0 Z " fill="#0C677A" transform="translate(138,62)"/>
<path d="M0 0 C1.14926266 0.95421808 2.29430541 1.91352045 3.4375 2.875 C4.07558594 3.40867187 4.71367187 3.94234375 5.37109375 4.4921875 C7 6 7 6 8 8 C5.625 8.125 5.625 8.125 3 8 C0.4345406 5.4345406 0.45953913 3.52313332 0 0 Z " fill="#097B8F" transform="translate(432,68)"/>
<path d="M0 0 C0 3.44360632 -0.79591532 4.74795392 -2.5 7.6875 C-2.9640625 8.49574219 -3.428125 9.30398437 -3.90625 10.13671875 C-4.44765625 11.05904297 -4.44765625 11.05904297 -5 12 C-5.66 10.68 -6.32 9.36 -7 8 C-6.01 8 -5.02 8 -4 8 C-3.896875 7.05125 -3.79375 6.1025 -3.6875 5.125 C-3 2 -3 2 0 0 Z " fill="#0C6C7A" transform="translate(452,240)"/>
<path d="M0 0 C0.99 0.99 1.98 1.98 3 3 C2.34 4.32 1.68 5.64 1 7 C-0.98 5.68 -2.96 4.36 -5 3 C-2 1 -2 1 0 0 Z " fill="#0A7B93" transform="translate(368,130)"/>
<path d="M0 0 C2.64 0 5.28 0 8 0 C8 3 8 3 6 6 C3.97945196 4.35830472 1.97956942 2.69088222 0 1 C0 0.67 0 0.34 0 0 Z " fill="#087B8F" transform="translate(372,139)"/>
<path d="M0 0 C2.1991413 4.39828259 2.51855059 7.18550592 3 12 C2.01 12 1.02 12 0 12 C0 8.04 0 4.08 0 0 Z " fill="#0F697C" transform="translate(457,108)"/>
<path d="M0 0 C1.32 0.66 2.64 1.32 4 2 C1.03 4.475 1.03 4.475 -2 7 C-2.6875 5.1875 -2.6875 5.1875 -3 3 C-1.5625 1.25 -1.5625 1.25 0 0 Z " fill="#5CBEC1" transform="translate(142,443)"/>
<path d="M0 0 C-1.31224548 3.93673644 -2.91910327 6.22719294 -6 9 C-5.6875 5.625 -5.6875 5.625 -5 2 C-2 0 -2 0 0 0 Z " fill="#50A9AB" transform="translate(383,334)"/>
<path d="M0 0 C0.33 0 0.66 0 1 0 C1 1.98 1 3.96 1 6 C2.98 6.495 2.98 6.495 5 7 C3.35 8.32 1.7 9.64 0 11 C0 7.37 0 3.74 0 0 Z " fill="#6AB8B9" transform="translate(135,444)"/>
<path d="M0 0 C2.31 0 4.62 0 7 0 C2.25 4.875 2.25 4.875 0 6 C0 4.02 0 2.04 0 0 Z " fill="#4CB2AE" transform="translate(162,424)"/>
<path d="M0 0 C0.66 0.33 1.32 0.66 2 1 C-0.79374529 5.19061794 -4.54191691 6.85351555 -9 9 C-6.21000549 5.51250686 -3.74764169 2.49842779 0 0 Z " fill="#428A90" transform="translate(74,147)"/>
<path d="M0 0 C1.485 0.99 1.485 0.99 3 2 C2.67 5.96 2.34 9.92 2 14 C1.67 14 1.34 14 1 14 C0.67 9.38 0.34 4.76 0 0 Z " fill="#0C596A" transform="translate(408,198)"/>
<path d="M0 0 C3.28788824 3.11016455 5.83735988 6.01618925 8 10 C7.34 10 6.68 10 6 10 C5.67 9.34 5.34 8.68 5 8 C4.01 7.67 3.02 7.34 2 7 C0.8125 3.4375 0.8125 3.4375 0 0 Z " fill="#4A9B9C" transform="translate(371,157)"/>
<path d="M0 0 C0.8353125 0.556875 0.8353125 0.556875 1.6875 1.125 C-0.6225 1.785 -2.9325 2.445 -5.3125 3.125 C-5.9725 2.465 -6.6325 1.805 -7.3125 1.125 C-2.88173077 -1.09038462 -2.88173077 -1.09038462 0 0 Z " fill="#50B3B2" transform="translate(96.3125,136.875)"/>
<path d="M0 0 C0.6875 1.6875 0.6875 1.6875 1 4 C-0.3125 6.75 -0.3125 6.75 -2 9 C-2.66 9 -3.32 9 -4 9 C-2.94124926 5.59687262 -1.99097846 2.98646769 0 0 Z " fill="#0E6679" transform="translate(117,85)"/>
<path d="M0 0 C1.485 0.99 1.485 0.99 3 2 C1.25 5.875 1.25 5.875 -1 7 C-0.67 4.69 -0.34 2.38 0 0 Z " fill="#53BCBE" transform="translate(369,346)"/>
<path d="M0 0 C0.33 0.66 0.66 1.32 1 2 C0.06553465 4.03144641 -0.93224776 6.03533587 -2 8 C-2.33 8 -2.66 8 -3 8 C-3 5.69 -3 3.38 -3 1 C-2.01 0.67 -1.02 0.34 0 0 Z " fill="#46A3A3" transform="translate(389,321)"/>
<path d="M0 0 C0.66 0 1.32 0 2 0 C2 0.66 2 1.32 2 2 C2.639375 2.268125 3.27875 2.53625 3.9375 2.8125 C6 4 6 4 7 7 C6.01 7 5.02 7 4 7 C2.02 3.535 2.02 3.535 0 0 Z " fill="#0C6877" transform="translate(388,155)"/>
<path d="M0 0 C1.65 0 3.3 0 5 0 C5.33 2.31 5.66 4.62 6 7 C1.125 2.25 1.125 2.25 0 0 Z " fill="#0F6E82" transform="translate(382,148)"/>
</svg>
