<?xml version="1.0" encoding="utf-8"?>
<!DOCTYPE svg PUBLIC "-//W3C//DTD SVG 1.0//EN" "http://www.w3.org/TR/2001/REC-SVG-20010904/DTD/svg10.dtd">
<svg version="1.0" xmlns="http://www.w3.org/2000/svg" width="500px" height="500px" viewBox="0 0 500 500" preserveAspectRatio="xMidYMid meet">
 <g fill="#5ce1e5">
  <path d="M135.3 415.7 l0.2 -38.5 -10 -0.6 c-11.4 -0.8 -23.7 -3.4 -32.3 -7 -14.5 -5.8 -29.6 -18.4 -38.8 -32.2 -6.5 -9.8 -9.4 -16.2 -12.4 -27.4 -2.2 -8.1 -2.4 -10.5 -2.8 -51.3 -0.2 -28 0 -45.7 0.7 -51.2 4.7 -34.9 30.7 -64.3 65.2 -73.7 l8.4 -2.3 104 0 c116.8 0 109 -0.5 126.3 7.6 25.6 11.8 44.1 35 49.6 62.1 1.3 6.4 1.6 15.7 1.6 53.6 0 43 -0.1 46.3 -2.1 54.3 -7.8 31.7 -34.5 58.1 -65.8 64.9 -5.4 1.2 -16.3 2.4 -27.8 2.9 -36.6 1.9 -64 8.9 -94.5 24.2 -21.7 10.9 -39.1 23.4 -57.5 41.2 l-12.2 11.9 0.2 -38.5z"/>
 </g>
 <g fill="#0096ae">
  <path d="M411 249.3 c0 -18 -0.5 -36.6 -1 -41.3 -2.8 -24.5 -12 -43.9 -29.4 -61.8 -17.7 -18.2 -38.9 -28.1 -65.6 -30.3 -17.8 -1.5 -201.3 -0.7 -205.9 0.9 l-3.3 1.1 0.6 -4 c0.9 -5.8 5.9 -18.3 10.3 -25.9 2.2 -3.7 7.9 -10.7 13.3 -16.1 13.5 -13.6 26.3 -20.7 44.5 -24.7 7.3 -1.5 16.9 -1.7 108.5 -1.7 111.2 0 106.7 -0.2 123 6.5 21.6 8.9 40.7 28.7 48.6 50.5 5.2 14.4 5.5 18.3 5.2 69.6 -0.4 45.6 -0.5 47.7 -2.6 54.7 -6.8 22.2 -21.7 41.2 -41.4 52.6 l-4.8 2.8 0 -32.9z"/>
 </g>
</svg>