<?xml version="1.0" encoding="UTF-8"?>
<!DOCTYPE svg PUBLIC "-//W3C//DTD SVG 1.1//EN" "http://www.w3.org/Graphics/SVG/1.1/DTD/svg11.dtd">
<svg xmlns="http://www.w3.org/2000/svg" version="1.1" width="1920px" height="1080px" style="shape-rendering:geometricPrecision; text-rendering:geometricPrecision; image-rendering:optimizeQuality; fill-rule:evenodd; clip-rule:evenodd" xmlns:xlink="http://www.w3.org/1999/xlink">
<g><path style="opacity:1" fill="#000000" d="M -0.5,-0.5 C 639.5,-0.5 1279.5,-0.5 1919.5,-0.5C 1919.5,359.5 1919.5,719.5 1919.5,1079.5C 1279.5,1079.5 639.5,1079.5 -0.5,1079.5C -0.5,719.5 -0.5,359.5 -0.5,-0.5 Z"/></g>
<g><path style="opacity:1" fill="#73e1e8" d="M 920.5,300.5 C 925.385,303.02 930.385,305.354 935.5,307.5C 935.833,308.833 936.167,310.167 936.5,311.5C 936.058,319.259 935.058,326.925 933.5,334.5C 928.605,331.554 923.605,328.887 918.5,326.5C 896.676,314.095 873.676,304.095 849.5,296.5C 836.726,292.745 823.726,289.911 810.5,288C 809.39,284.551 809.39,281.051 810.5,277.5C 848.491,278.831 885.158,286.498 920.5,300.5 Z"/></g>
<g><path style="opacity:1" fill="#25c9e0" d="M 777.5,269.5 C 776.612,272.054 776.279,274.721 776.5,277.5C 760.91,278.988 745.91,282.821 731.5,289C 738.17,288.402 744.837,287.402 751.5,286C 761.494,285.5 771.494,285.334 781.5,285.5C 781.073,289.824 780.739,294.158 780.5,298.5C 758.418,299.301 736.752,302.634 715.5,308.5C 716.472,299.529 717.139,290.529 717.5,281.5C 736.796,274.574 756.796,270.574 777.5,269.5 Z"/></g>
<g><path style="opacity:1" fill="#49d5e2" d="M 921.5,296.5 C 920.566,297.568 920.232,298.901 920.5,300.5C 885.158,286.498 848.491,278.831 810.5,277.5C 809.39,281.051 809.39,284.551 810.5,288C 823.726,289.911 836.726,292.745 849.5,296.5C 848.597,299.391 848.264,302.391 848.5,305.5C 847.5,305.5 846.5,305.5 845.5,305.5C 830.281,302.659 814.948,300.659 799.5,299.5C 793.355,298.51 787.022,298.177 780.5,298.5C 780.739,294.158 781.073,289.824 781.5,285.5C 771.494,285.334 761.494,285.5 751.5,286C 744.837,287.402 738.17,288.402 731.5,289C 745.91,282.821 760.91,278.988 776.5,277.5C 776.279,274.721 776.612,272.054 777.5,269.5C 827.893,266.009 875.893,275.009 921.5,296.5 Z"/></g>
<g><path style="opacity:1" fill="#0ebedd" d="M 717.5,281.5 C 717.139,290.529 716.472,299.529 715.5,308.5C 704.39,311.721 693.723,316.055 683.5,321.5C 680.574,322.698 677.574,323.698 674.5,324.5C 634.365,338.06 602.032,362.06 577.5,396.5C 576.833,396.5 576.167,396.5 575.5,396.5C 609.105,341.229 656.438,302.896 717.5,281.5 Z"/></g>
<g><path style="opacity:1" fill="#11bedc" d="M 1328.5,334.5 C 1328.57,334.938 1328.4,335.272 1328,335.5C 1322.35,330.927 1316.18,327.26 1309.5,324.5C 1297.52,318.369 1284.85,314.369 1271.5,312.5C 1266.85,311.704 1262.19,311.037 1257.5,310.5C 1256.33,309.655 1255,308.989 1253.5,308.5C 1215.48,301.538 1180.15,308.371 1147.5,329C 1124.55,343.446 1106.22,362.28 1092.5,385.5C 1085.77,392.653 1079.77,400.32 1074.5,408.5C 1067.83,403.833 1062.17,398.167 1057.5,391.5C 1092.54,343.95 1138.87,312.784 1196.5,298C 1243.33,288.286 1285.33,298.286 1322.5,328C 1324.71,330.037 1326.71,332.203 1328.5,334.5 Z"/></g>
<g><path style="opacity:1" fill="#56dde4" d="M 849.5,296.5 C 873.676,304.095 896.676,314.095 918.5,326.5C 918.5,328.5 918.5,330.5 918.5,332.5C 895.049,320.908 870.716,311.908 845.5,305.5C 846.5,305.5 847.5,305.5 848.5,305.5C 848.264,302.391 848.597,299.391 849.5,296.5 Z"/></g>
<g><path style="opacity:1" fill="#2d8999" d="M 1095.5,333.5 C 1094.17,332.5 1092.83,331.5 1091.5,330.5C 1098.6,325.442 1105.93,320.608 1113.5,316C 1124.41,310.544 1134.75,305.377 1144.5,300.5C 1153.82,296.585 1163.49,293.752 1173.5,292C 1145.54,302.477 1119.54,316.31 1095.5,333.5 Z"/></g>
<g><path style="opacity:1" fill="#8ae2ef" d="M 780.5,298.5 C 787.022,298.177 793.355,298.51 799.5,299.5C 793.167,299.5 786.833,299.5 780.5,299.5C 780.5,300.5 780.5,301.5 780.5,302.5C 784.702,302.183 788.702,302.517 792.5,303.5C 758.302,301.811 725.302,307.144 693.5,319.5C 690.123,319.959 686.789,320.626 683.5,321.5C 693.723,316.055 704.39,311.721 715.5,308.5C 736.752,302.634 758.418,299.301 780.5,298.5 Z"/></g>
<g><path style="opacity:1" fill="#83deed" d="M 1253.5,308.5 C 1245.01,309.33 1236.34,309.83 1227.5,310C 1222.27,310.296 1217.27,311.129 1212.5,312.5C 1206.6,313.342 1200.93,314.676 1195.5,316.5C 1188.48,318.061 1181.81,320.394 1175.5,323.5C 1168.9,325.465 1162.9,328.465 1157.5,332.5C 1149.36,335.99 1142.03,340.657 1135.5,346.5C 1119.62,357.709 1105.29,370.709 1092.5,385.5C 1106.22,362.28 1124.55,343.446 1147.5,329C 1180.15,308.371 1215.48,301.538 1253.5,308.5 Z"/></g>
<g><path style="opacity:1" fill="#1d9bb5" d="M 821.5,308.5 C 823.97,317.243 826.637,325.91 829.5,334.5C 818.571,332.759 807.571,331.759 796.5,331.5C 789.345,330.671 782.011,330.171 774.5,330C 772.093,323.404 770.593,316.57 770,309.5C 769.29,308.027 768.124,307.36 766.5,307.5C 784.781,304.743 803.114,305.076 821.5,308.5 Z"/></g>
<g><path style="opacity:1" fill="#50d7df" d="M 1253.5,308.5 C 1255,308.989 1256.33,309.655 1257.5,310.5C 1254.5,310.5 1251.5,310.5 1248.5,310.5C 1253.03,324.094 1257.36,337.761 1261.5,351.5C 1250.3,349.191 1238.97,348.191 1227.5,348.5C 1223.91,336.719 1219.91,325.052 1215.5,313.5C 1214.68,312.614 1213.68,312.281 1212.5,312.5C 1217.27,311.129 1222.27,310.296 1227.5,310C 1236.34,309.83 1245.01,309.33 1253.5,308.5 Z"/></g>
<g><path style="opacity:1" fill="#58dee4" d="M 1257.5,310.5 C 1262.19,311.037 1266.85,311.704 1271.5,312.5C 1276.2,327.573 1281.2,342.573 1286.5,357.5C 1286.38,358.107 1286.04,358.44 1285.5,358.5C 1277.5,356.165 1269.5,353.832 1261.5,351.5C 1257.36,337.761 1253.03,324.094 1248.5,310.5C 1251.5,310.5 1254.5,310.5 1257.5,310.5 Z"/></g>
<g><path style="opacity:1" fill="#a2e9ef" d="M 799.5,299.5 C 814.948,300.659 830.281,302.659 845.5,305.5C 870.716,311.908 895.049,320.908 918.5,332.5C 926.27,337.559 934.27,342.392 942.5,347C 947.414,350.277 952.08,353.777 956.5,357.5C 943.131,349.147 929.131,341.814 914.5,335.5C 904.067,330.283 893.401,325.617 882.5,321.5C 853.637,310.527 823.637,304.527 792.5,303.5C 788.702,302.517 784.702,302.183 780.5,302.5C 780.5,301.5 780.5,300.5 780.5,299.5C 786.833,299.5 793.167,299.5 799.5,299.5 Z"/></g>
<g><path style="opacity:1" fill="#27a3b9" d="M 821.5,308.5 C 836.718,309.476 851.384,312.476 865.5,317.5C 867.019,324.228 868.853,330.895 871,337.5C 871.497,339.81 871.663,342.143 871.5,344.5C 860.249,341.187 848.916,338.187 837.5,335.5C 834.763,335.599 832.096,335.265 829.5,334.5C 826.637,325.91 823.97,317.243 821.5,308.5 Z"/></g>
<g><path style="opacity:1" fill="#0e8dab" d="M 766.5,307.5 C 768.124,307.36 769.29,308.027 770,309.5C 770.593,316.57 772.093,323.404 774.5,330C 782.011,330.171 789.345,330.671 796.5,331.5C 790.5,331.5 784.5,331.5 778.5,331.5C 757.535,331.948 737.201,335.781 717.5,343C 712.604,344.899 707.937,347.065 703.5,349.5C 685.048,357.734 669.048,369.4 655.5,384.5C 653.152,374.925 651.486,365.092 650.5,355C 650.392,353.319 649.725,352.152 648.5,351.5C 674.319,330.763 703.653,317.263 736.5,311C 746.39,308.847 756.39,307.68 766.5,307.5 Z"/></g>
<g><path style="opacity:1" fill="#3ec8d5" d="M 1212.5,312.5 C 1213.68,312.281 1214.68,312.614 1215.5,313.5C 1219.91,325.052 1223.91,336.719 1227.5,348.5C 1223.4,348.237 1219.4,348.57 1215.5,349.5C 1212.76,349.401 1210.1,349.735 1207.5,350.5C 1204.01,338.886 1200.01,327.553 1195.5,316.5C 1200.93,314.676 1206.6,313.342 1212.5,312.5 Z"/></g>
<g><path style="opacity:1" fill="#42d6e3" d="M 1271.5,312.5 C 1284.85,314.369 1297.52,318.369 1309.5,324.5C 1316.92,345.606 1324.26,366.772 1331.5,388C 1331.43,388.765 1331.1,389.265 1330.5,389.5C 1323.4,381.733 1315.4,375.066 1306.5,369.5C 1299.59,365.547 1292.59,361.88 1285.5,358.5C 1286.04,358.44 1286.38,358.107 1286.5,357.5C 1281.2,342.573 1276.2,327.573 1271.5,312.5 Z"/></g>
<g><path style="opacity:1" fill="#31becd" d="M 1195.5,316.5 C 1200.01,327.553 1204.01,338.886 1207.5,350.5C 1203.88,350.899 1200.55,351.899 1197.5,353.5C 1193.65,353.894 1189.99,354.894 1186.5,356.5C 1183.43,345.286 1179.76,334.286 1175.5,323.5C 1181.81,320.394 1188.48,318.061 1195.5,316.5 Z"/></g>
<g><path style="opacity:1" fill="#56ccd7" d="M 921.5,296.5 C 939.754,304.291 957.088,313.624 973.5,324.5C 975.512,327.887 978.512,330.387 982.5,332C 983.99,332.745 984.99,333.912 985.5,335.5C 984.72,347.045 983.387,358.378 981.5,369.5C 976.137,364.807 970.47,360.474 964.5,356.5C 963.833,358.5 963.167,360.5 962.5,362.5C 960.429,360.815 958.429,359.148 956.5,357.5C 952.08,353.777 947.414,350.277 942.5,347C 934.27,342.392 926.27,337.559 918.5,332.5C 918.5,330.5 918.5,328.5 918.5,326.5C 923.605,328.887 928.605,331.554 933.5,334.5C 935.058,326.925 936.058,319.259 936.5,311.5C 936.167,310.167 935.833,308.833 935.5,307.5C 930.385,305.354 925.385,303.02 920.5,300.5C 920.232,298.901 920.566,297.568 921.5,296.5 Z"/></g>
<g><path style="opacity:1" fill="#25b4c6" d="M 1175.5,323.5 C 1179.76,334.286 1183.43,345.286 1186.5,356.5C 1183.98,357.264 1181.65,358.264 1179.5,359.5C 1175.74,360.548 1172.07,361.881 1168.5,363.5C 1165.01,353.016 1161.34,342.683 1157.5,332.5C 1162.9,328.465 1168.9,325.465 1175.5,323.5 Z"/></g>
<g><path style="opacity:1" fill="#84c6d4" d="M 792.5,303.5 C 823.637,304.527 853.637,310.527 882.5,321.5C 876.833,320.167 871.167,318.833 865.5,317.5C 851.384,312.476 836.718,309.476 821.5,308.5C 803.114,305.076 784.781,304.743 766.5,307.5C 756.39,307.68 746.39,308.847 736.5,311C 703.653,317.263 674.319,330.763 648.5,351.5C 627.917,367.582 611.084,386.915 598,409.5C 591.927,420.313 586.427,431.313 581.5,442.5C 601.404,385.597 638.737,344.597 693.5,319.5C 725.302,307.144 758.302,301.811 792.5,303.5 Z"/></g>
<g><path style="opacity:1" fill="#19758e" d="M 778.5,331.5 C 784.5,331.5 790.5,331.5 796.5,331.5C 807.571,331.759 818.571,332.759 829.5,334.5C 832.096,335.265 834.763,335.599 837.5,335.5C 835.556,344.172 836.556,352.505 840.5,360.5C 848.652,363.911 856.819,367.244 865,370.5C 866.668,378.333 868.835,386 871.5,393.5C 860.336,389 849.002,385.333 837.5,382.5C 836.791,381.596 835.791,381.263 834.5,381.5C 834.395,377.681 833.562,374.014 832,370.5C 831.667,372.167 831.333,373.833 831,375.5C 829.978,369.881 829.145,364.214 828.5,358.5C 816.457,354.882 804.123,352.882 791.5,352.5C 788.038,351.518 784.371,351.185 780.5,351.5C 779.188,346.916 778.188,342.249 777.5,337.5C 777.672,335.452 778.005,333.452 778.5,331.5 Z"/></g>
<g><path style="opacity:1" fill="#34adbe" d="M 865.5,317.5 C 871.167,318.833 876.833,320.167 882.5,321.5C 893.401,325.617 904.067,330.283 914.5,335.5C 915.841,340.527 917.341,345.527 919,350.5C 918.404,346.938 918.57,344.438 919.5,343C 923.052,351.151 925.052,359.651 925.5,368.5C 908.242,358.872 890.242,350.872 871.5,344.5C 871.663,342.143 871.497,339.81 871,337.5C 868.853,330.895 867.019,324.228 865.5,317.5 Z"/></g>
<g><path style="opacity:1" fill="#0e6a87" d="M 778.5,331.5 C 778.005,333.452 777.672,335.452 777.5,337.5C 778.188,342.249 779.188,346.916 780.5,351.5C 784.371,351.185 788.038,351.518 791.5,352.5C 786.167,352.5 780.833,352.5 775.5,352.5C 756.107,352.232 737.44,355.732 719.5,363C 716.609,364.274 713.942,365.774 711.5,367.5C 710.167,367.833 708.833,368.167 707.5,368.5C 706.778,368.082 706.278,367.416 706,366.5C 705.211,360.813 704.378,355.147 703.5,349.5C 707.937,347.065 712.604,344.899 717.5,343C 737.201,335.781 757.535,331.948 778.5,331.5 Z"/></g>
<g><path style="opacity:1" fill="#217e95" d="M 837.5,335.5 C 848.916,338.187 860.249,341.187 871.5,344.5C 872.336,348.666 873.336,352.833 874.5,357C 873.121,362.834 872.788,368.667 873.5,374.5C 886.289,380.727 898.622,387.727 910.5,395.5C 912.799,401.926 913.799,408.593 913.5,415.5C 900.099,407.132 886.099,399.799 871.5,393.5C 868.835,386 866.668,378.333 865,370.5C 856.819,367.244 848.652,363.911 840.5,360.5C 836.556,352.505 835.556,344.172 837.5,335.5 Z"/></g>
<g><path style="opacity:1" fill="#2bcbe0" d="M 1309.5,324.5 C 1316.18,327.26 1322.35,330.927 1328,335.5C 1328.4,335.272 1328.57,334.938 1328.5,334.5C 1361.98,366.709 1379.31,406.209 1380.5,453C 1381.08,478.831 1375.75,503.331 1364.5,526.5C 1363.9,526.265 1363.57,525.765 1363.5,525C 1370.67,505.012 1371.33,484.846 1365.5,464.5C 1361.62,435.742 1349.95,410.742 1330.5,389.5C 1331.1,389.265 1331.43,388.765 1331.5,388C 1324.26,366.772 1316.92,345.606 1309.5,324.5 Z"/></g>
<g><path style="opacity:1" fill="#33c7d9" d="M 1144.5,300.5 C 1134.75,305.377 1124.41,310.544 1113.5,316C 1105.93,320.608 1098.6,325.442 1091.5,330.5C 1081.62,336.385 1072.62,343.385 1064.5,351.5C 1058.44,357.56 1052.11,363.226 1045.5,368.5C 1043.31,367.165 1041.81,365.499 1041,363.5C 1070.65,334.749 1105.15,313.749 1144.5,300.5 Z"/></g>
<g><path style="opacity:1" fill="#18a9bf" d="M 1157.5,332.5 C 1161.34,342.683 1165.01,353.016 1168.5,363.5C 1164.5,365.833 1160.5,368.167 1156.5,370.5C 1153.63,372.432 1150.63,374.099 1147.5,375.5C 1144.38,367.642 1141.55,359.642 1139,351.5C 1138.45,349.24 1137.28,347.574 1135.5,346.5C 1142.03,340.657 1149.36,335.99 1157.5,332.5 Z"/></g>
<g><path style="opacity:1" fill="#1d576e" d="M 1091.5,330.5 C 1092.83,331.5 1094.17,332.5 1095.5,333.5C 1086.19,341.137 1076.86,348.803 1067.5,356.5C 1066.06,355.718 1065.06,354.051 1064.5,351.5C 1072.62,343.385 1081.62,336.385 1091.5,330.5 Z"/></g>
<g><path style="opacity:1" fill="#33acc1" d="M 1227.5,348.5 C 1238.97,348.191 1250.3,349.191 1261.5,351.5C 1269.5,353.832 1277.5,356.165 1285.5,358.5C 1292.59,361.88 1299.59,365.547 1306.5,369.5C 1305.42,379.157 1304.42,388.824 1303.5,398.5C 1282.16,391.235 1260.16,387.235 1237.5,386.5C 1228.26,385.903 1219.26,386.903 1210.5,389.5C 1212.31,376.223 1213.98,362.89 1215.5,349.5C 1219.4,348.57 1223.4,348.237 1227.5,348.5 Z"/></g>
<g><path style="opacity:1" fill="#4bbfce" d="M 973.5,324.5 C 990.037,335.043 1005.7,346.709 1020.5,359.5C 1019.97,373.565 1018.8,387.565 1017,401.5C 1016.33,400.748 1015.5,400.414 1014.5,400.5C 1013.5,400.167 1012.83,399.5 1012.5,398.5C 1002.47,388.467 992.135,378.8 981.5,369.5C 983.387,358.378 984.72,347.045 985.5,335.5C 984.99,333.912 983.99,332.745 982.5,332C 978.512,330.387 975.512,327.887 973.5,324.5 Z"/></g>
<g><path style="opacity:1" fill="#4cbfcf" d="M 1215.5,349.5 C 1213.98,362.89 1212.31,376.223 1210.5,389.5C 1204.54,390.709 1198.87,392.709 1193.5,395.5C 1195.52,381.339 1196.85,367.339 1197.5,353.5C 1200.55,351.899 1203.88,350.899 1207.5,350.5C 1210.1,349.735 1212.76,349.401 1215.5,349.5 Z"/></g>
<g><path style="opacity:1" fill="#14647f" d="M 775.5,352.5 C 780.833,352.5 786.167,352.5 791.5,352.5C 804.123,352.882 816.457,354.882 828.5,358.5C 829.145,364.214 829.978,369.881 831,375.5C 831.333,373.833 831.667,372.167 832,370.5C 833.562,374.014 834.395,377.681 834.5,381.5C 835.791,381.263 836.791,381.596 837.5,382.5C 817.968,378.762 798.301,377.762 778.5,379.5C 779.315,377.246 779.981,374.913 780.5,372.5C 778.001,366.011 776.335,359.344 775.5,352.5 Z"/></g>
<g><path style="opacity:1" fill="#2a889c" d="M 871.5,344.5 C 890.242,350.872 908.242,358.872 925.5,368.5C 926.5,369.167 927.5,369.833 928.5,370.5C 927.188,385.299 929.355,399.633 935,413.5C 942.294,419.126 949.294,425.126 956,431.5C 956.62,436.556 957.454,441.556 958.5,446.5C 943.775,435.776 928.775,425.443 913.5,415.5C 913.799,408.593 912.799,401.926 910.5,395.5C 898.622,387.727 886.289,380.727 873.5,374.5C 872.788,368.667 873.121,362.834 874.5,357C 873.336,352.833 872.336,348.666 871.5,344.5 Z"/></g>
<g><path style="opacity:1" fill="#a6e8f1" d="M 693.5,319.5 C 638.737,344.597 601.404,385.597 581.5,442.5C 579.335,449.663 577.001,456.663 574.5,463.5C 587.87,402.512 621.203,356.179 674.5,324.5C 677.574,323.698 680.574,322.698 683.5,321.5C 686.789,320.626 690.123,319.959 693.5,319.5 Z"/></g>
<g><path style="opacity:1" fill="#0e5672" d="M 775.5,352.5 C 776.335,359.344 778.001,366.011 780.5,372.5C 779.981,374.913 779.315,377.246 778.5,379.5C 755.187,382.604 733.521,390.27 713.5,402.5C 712.833,390.833 712.167,379.167 711.5,367.5C 713.942,365.774 716.609,364.274 719.5,363C 737.44,355.732 756.107,352.232 775.5,352.5 Z"/></g>
<g><path style="opacity:1" fill="#079cb5" d="M 1135.5,346.5 C 1137.28,347.574 1138.45,349.24 1139,351.5C 1141.55,359.642 1144.38,367.642 1147.5,375.5C 1141.65,379.928 1135.98,384.594 1130.5,389.5C 1116.78,401.553 1104.45,414.886 1093.5,429.5C 1086.83,422.825 1080.49,415.825 1074.5,408.5C 1079.77,400.32 1085.77,392.653 1092.5,385.5C 1105.29,370.709 1119.62,357.709 1135.5,346.5 Z"/></g>
<g><path style="opacity:1" fill="#62d1db" d="M 1197.5,353.5 C 1196.85,367.339 1195.52,381.339 1193.5,395.5C 1187.34,398.077 1181.67,401.41 1176.5,405.5C 1177.47,390.215 1179.14,375.048 1181.5,360C 1180.91,359.536 1180.24,359.369 1179.5,359.5C 1181.65,358.264 1183.98,357.264 1186.5,356.5C 1189.99,354.894 1193.65,353.894 1197.5,353.5 Z"/></g>
<g><path style="opacity:1" fill="#75e1e7" d="M 1179.5,359.5 C 1180.24,359.369 1180.91,359.536 1181.5,360C 1179.14,375.048 1177.47,390.215 1176.5,405.5C 1167.21,412.452 1158.55,420.119 1150.5,428.5C 1152.83,409.201 1154.83,389.868 1156.5,370.5C 1160.5,368.167 1164.5,365.833 1168.5,363.5C 1172.07,361.881 1175.74,360.548 1179.5,359.5 Z"/></g>
<g><path style="opacity:1" fill="#43b9c5" d="M 914.5,335.5 C 929.131,341.814 943.131,349.147 956.5,357.5C 958.429,359.148 960.429,360.815 962.5,362.5C 963.167,360.5 963.833,358.5 964.5,356.5C 970.47,360.474 976.137,364.807 981.5,369.5C 992.135,378.8 1002.47,388.467 1012.5,398.5C 1006.38,394.261 1000.38,389.761 994.5,385C 992.911,383.457 991.577,383.457 990.5,385C 995.631,399.22 999.631,413.72 1002.5,428.5C 997.481,424.476 992.481,420.476 987.5,416.5C 985.372,413.87 983.039,411.37 980.5,409C 972.293,401.954 963.96,395.121 955.5,388.5C 947.044,381.715 938.044,375.715 928.5,370.5C 927.5,369.833 926.5,369.167 925.5,368.5C 925.052,359.651 923.052,351.151 919.5,343C 918.57,344.438 918.404,346.938 919,350.5C 917.341,345.527 915.841,340.527 914.5,335.5 Z"/></g>
<g><path style="opacity:1" fill="#41b7c9" d="M 1020.5,359.5 C 1027.82,365.492 1034.82,371.825 1041.5,378.5C 1040.26,392.814 1039.26,407.148 1038.5,421.5C 1030.47,414.471 1022.47,407.471 1014.5,400.5C 1015.5,400.414 1016.33,400.748 1017,401.5C 1018.8,387.565 1019.97,373.565 1020.5,359.5 Z"/></g>
<g><path style="opacity:1" fill="#133e57" d="M 1064.5,351.5 C 1065.06,354.051 1066.06,355.718 1067.5,356.5C 1062.17,361.997 1057,367.664 1052,373.5C 1049.65,371.97 1047.48,370.303 1045.5,368.5C 1052.11,363.226 1058.44,357.56 1064.5,351.5 Z"/></g>
<g><path style="opacity:1" fill="#3392a3" d="M 928.5,370.5 C 938.044,375.715 947.044,381.715 955.5,388.5C 955.029,390.288 954.696,392.122 954.5,394C 956.391,408.237 958.557,422.404 961,436.5C 965.973,440.806 970.64,445.473 975,450.5C 975.634,453.555 975.468,456.555 974.5,459.5C 968.76,455.635 963.427,451.302 958.5,446.5C 957.454,441.556 956.62,436.556 956,431.5C 949.294,425.126 942.294,419.126 935,413.5C 929.355,399.633 927.188,385.299 928.5,370.5 Z"/></g>
<g><path style="opacity:1" fill="#4bd2e6" d="M 674.5,324.5 C 621.203,356.179 587.87,402.512 574.5,463.5C 569.223,485.542 568.056,507.876 571,530.5C 572.31,538.883 573.81,547.216 575.5,555.5C 575.938,562.356 577.271,569.023 579.5,575.5C 575.363,608.388 571.363,641.388 567.5,674.5C 564.522,670.557 562.022,666.223 560,661.5C 556.258,653.355 553.091,645.022 550.5,636.5C 559.937,556.567 568.937,476.567 577.5,396.5C 602.032,362.06 634.365,338.06 674.5,324.5 Z"/></g>
<g><path style="opacity:1" fill="#000000" d="M 837.5,382.5 C 849.002,385.333 860.336,389 871.5,393.5C 886.099,399.799 900.099,407.132 913.5,415.5C 928.775,425.443 943.775,435.776 958.5,446.5C 963.427,451.302 968.76,455.635 974.5,459.5C 981.943,466.062 989.609,472.395 997.5,478.5C 999.167,479.833 1000.83,481.167 1002.5,482.5C 998.856,490.459 995.189,498.459 991.5,506.5C 972.27,543.97 949.77,579.303 924,612.5C 908.966,629.732 891.799,644.232 872.5,656C 847.674,670.04 821.007,676.54 792.5,675.5C 783.375,675.529 774.375,674.529 765.5,672.5C 740.362,665.435 718.029,653.435 698.5,636.5C 685.067,623.622 674.067,608.956 665.5,592.5C 645.548,547.833 645.548,503.166 665.5,458.5C 676.779,435.88 692.779,417.214 713.5,402.5C 733.521,390.27 755.187,382.604 778.5,379.5C 798.301,377.762 817.968,378.762 837.5,382.5 Z"/></g>
<g><path style="opacity:1" fill="#4dbfc8" d="M 1012.5,398.5 C 1012.83,399.5 1013.5,400.167 1014.5,400.5C 1022.47,407.471 1030.47,414.471 1038.5,421.5C 1042.14,424.473 1045.47,427.806 1048.5,431.5C 1053.86,450.258 1059.52,468.925 1065.5,487.5C 1049.89,473.891 1034.55,459.891 1019.5,445.5C 1013.53,440.194 1007.86,434.527 1002.5,428.5C 999.631,413.72 995.631,399.22 990.5,385C 991.577,383.457 992.911,383.457 994.5,385C 1000.38,389.761 1006.38,394.261 1012.5,398.5 Z"/></g>
<g><path style="opacity:1" fill="#0e4c69" d="M 711.5,367.5 C 712.167,379.167 712.833,390.833 713.5,402.5C 692.779,417.214 676.779,435.88 665.5,458.5C 664.833,441.833 664.167,425.167 663.5,408.5C 675.319,392.014 689.986,378.68 707.5,368.5C 708.833,368.167 710.167,367.833 711.5,367.5 Z"/></g>
<g><path style="opacity:1" fill="#60dae7" d="M 1156.5,370.5 C 1154.83,389.868 1152.83,409.201 1150.5,428.5C 1141,439.331 1132.67,450.998 1125.5,463.5C 1123.97,463.573 1122.97,462.906 1122.5,461.5C 1125.24,437.508 1127.91,413.508 1130.5,389.5C 1135.98,384.594 1141.65,379.928 1147.5,375.5C 1150.63,374.099 1153.63,372.432 1156.5,370.5 Z"/></g>
<g><path style="opacity:1" fill="#000000" d="M 1237.5,386.5 C 1252.75,392.4 1264.75,402.4 1273.5,416.5C 1283.28,436.03 1284.11,456.03 1276,476.5C 1274.07,480.917 1271.57,484.917 1268.5,488.5C 1261.46,497.008 1252.46,502.508 1241.5,505C 1225.46,507.105 1209.46,506.938 1193.5,504.5C 1182.18,501.007 1171.18,496.673 1160.5,491.5C 1153.57,486.689 1146.57,481.856 1139.5,477C 1134.33,472.997 1129.66,468.497 1125.5,463.5C 1132.67,450.998 1141,439.331 1150.5,428.5C 1158.55,420.119 1167.21,412.452 1176.5,405.5C 1181.67,401.41 1187.34,398.077 1193.5,395.5C 1198.87,392.709 1204.54,390.709 1210.5,389.5C 1219.26,386.903 1228.26,385.903 1237.5,386.5 Z"/></g>
<g><path style="opacity:1" fill="#31bbca" d="M 821.5,398.5 C 830,400.222 838.334,402.555 846.5,405.5C 846.5,407.5 846.5,409.5 846.5,411.5C 838.016,409.628 829.682,407.628 821.5,405.5C 821.5,403.167 821.5,400.833 821.5,398.5 Z"/></g>
<g><path style="opacity:1" fill="#35b6cd" d="M 1306.5,369.5 C 1315.4,375.066 1323.4,381.733 1330.5,389.5C 1349.95,410.742 1361.62,435.742 1365.5,464.5C 1365.17,464.5 1364.83,464.5 1364.5,464.5C 1354.65,432.975 1334.31,410.975 1303.5,398.5C 1304.42,388.824 1305.42,379.157 1306.5,369.5 Z"/></g>
<g><path style="opacity:1" fill="#33acc1" d="M 1041.5,378.5 C 1046.85,382.857 1052.19,387.19 1057.5,391.5C 1062.17,398.167 1067.83,403.833 1074.5,408.5C 1080.49,415.825 1086.83,422.825 1093.5,429.5C 1102.46,440.79 1112.12,451.457 1122.5,461.5C 1122.97,462.906 1123.97,463.573 1125.5,463.5C 1129.66,468.497 1134.33,472.997 1139.5,477C 1146.57,481.856 1153.57,486.689 1160.5,491.5C 1159.23,490.913 1158.23,490.913 1157.5,491.5C 1159.42,492.612 1161.09,493.946 1162.5,495.5C 1186.36,515.951 1214.03,524.451 1245.5,521C 1240.98,520.825 1236.65,520.325 1232.5,519.5C 1250.52,522.164 1267.18,518.83 1282.5,509.5C 1284.76,509.038 1286.76,508.038 1288.5,506.5C 1289.52,507.002 1289.69,507.668 1289,508.5C 1263.36,537.713 1231.53,548.546 1193.5,541C 1188.83,539.333 1184.17,537.667 1179.5,536C 1165.41,528.376 1151.74,520.209 1138.5,511.5C 1129.37,504.211 1120.37,496.711 1111.5,489C 1090.93,469.258 1069.93,450.091 1048.5,431.5C 1045.47,427.806 1042.14,424.473 1038.5,421.5C 1039.26,407.148 1040.26,392.814 1041.5,378.5 Z"/></g>
<g><path style="opacity:1" fill="#42cdd9" d="M 821.5,398.5 C 821.5,400.833 821.5,403.167 821.5,405.5C 805.012,402.981 788.679,402.981 772.5,405.5C 765.577,406.564 758.91,408.231 752.5,410.5C 743.127,413.687 734.127,417.687 725.5,422.5C 725.5,420.833 725.5,419.167 725.5,417.5C 754.654,397.603 786.654,391.269 821.5,398.5 Z"/></g>
<g><path style="opacity:1" fill="#4ad1e6" d="M 1130.5,389.5 C 1127.91,413.508 1125.24,437.508 1122.5,461.5C 1112.12,451.457 1102.46,440.79 1093.5,429.5C 1104.45,414.886 1116.78,401.553 1130.5,389.5 Z"/></g>
<g><path style="opacity:1" fill="#339cac" d="M 821.5,405.5 C 829.682,407.628 838.016,409.628 846.5,411.5C 846.5,409.5 846.5,407.5 846.5,405.5C 860.405,411.117 873.405,418.284 885.5,427C 866.461,421.992 847.128,417.992 827.5,415C 812.2,413.663 796.867,413.163 781.5,413.5C 780.167,413.5 778.833,413.5 777.5,413.5C 777.5,410.833 777.5,408.167 777.5,405.5C 775.833,405.5 774.167,405.5 772.5,405.5C 788.679,402.981 805.012,402.981 821.5,405.5 Z"/></g>
<g><path style="opacity:1" fill="#3999a8" d="M 955.5,388.5 C 963.96,395.121 972.293,401.954 980.5,409C 983.039,411.37 985.372,413.87 987.5,416.5C 987.322,417.695 986.989,418.862 986.5,420C 989.068,428.536 991.734,437.036 994.5,445.5C 992.155,453.779 991.988,462.113 994,470.5C 994.883,473.102 996.383,475.269 998.5,477C 997.944,477.383 997.611,477.883 997.5,478.5C 989.609,472.395 981.943,466.062 974.5,459.5C 975.468,456.555 975.634,453.555 975,450.5C 970.64,445.473 965.973,440.806 961,436.5C 958.557,422.404 956.391,408.237 954.5,394C 954.696,392.122 955.029,390.288 955.5,388.5 Z"/></g>
<g><path style="opacity:1" fill="#0e5f7c" d="M 703.5,349.5 C 704.378,355.147 705.211,360.813 706,366.5C 706.278,367.416 706.778,368.082 707.5,368.5C 689.986,378.68 675.319,392.014 663.5,408.5C 640.856,442.423 632.356,479.756 638,520.5C 641.453,546.028 649.953,569.695 663.5,591.5C 663.957,592.298 664.624,592.631 665.5,592.5C 674.067,608.956 685.067,623.622 698.5,636.5C 657.267,616.069 632.434,583.069 624,537.5C 621.374,557.424 623.874,576.757 631.5,595.5C 631.154,596.696 630.654,596.696 630,595.5C 628.917,592.733 627.75,590.067 626.5,587.5C 607.97,544.176 605.47,499.842 619,454.5C 627.774,429.281 639.941,405.948 655.5,384.5C 669.048,369.4 685.048,357.734 703.5,349.5 Z"/></g>
<g><path style="opacity:1" fill="#318597" d="M 772.5,405.5 C 774.167,405.5 775.833,405.5 777.5,405.5C 777.5,408.167 777.5,410.833 777.5,413.5C 778.833,413.5 780.167,413.5 781.5,413.5C 772.524,414.609 763.524,416.276 754.5,418.5C 755.036,415.302 754.369,412.635 752.5,410.5C 758.91,408.231 765.577,406.564 772.5,405.5 Z"/></g>
<g><path style="opacity:1" fill="#0d84a1" d="M 648.5,351.5 C 649.725,352.152 650.392,353.319 650.5,355C 651.486,365.092 653.152,374.925 655.5,384.5C 639.941,405.948 627.774,429.281 619,454.5C 605.47,499.842 607.97,544.176 626.5,587.5C 625.903,587.735 625.57,588.235 625.5,589C 627.733,603.134 629.733,617.301 631.5,631.5C 604.073,612.656 585.406,587.323 575.5,555.5C 573.81,547.216 572.31,538.883 571,530.5C 568.056,507.876 569.223,485.542 574.5,463.5C 577.001,456.663 579.335,449.663 581.5,442.5C 586.427,431.313 591.927,420.313 598,409.5C 611.084,386.915 627.917,367.582 648.5,351.5 Z"/></g>
<g><path style="opacity:1" fill="#0e4763" d="M 663.5,408.5 C 664.167,425.167 664.833,441.833 665.5,458.5C 645.548,503.166 645.548,547.833 665.5,592.5C 664.624,592.631 663.957,592.298 663.5,591.5C 649.953,569.695 641.453,546.028 638,520.5C 632.356,479.756 640.856,442.423 663.5,408.5 Z"/></g>
<g><path style="opacity:1" fill="#0a98b1" d="M 1273.5,416.5 C 1279.39,416.45 1285.06,417.116 1290.5,418.5C 1304.88,442.481 1305.05,466.481 1291,490.5C 1286.17,497.502 1280.01,502.836 1272.5,506.5C 1271.88,501.67 1271.21,496.837 1270.5,492C 1270.39,490.319 1269.73,489.152 1268.5,488.5C 1271.57,484.917 1274.07,480.917 1276,476.5C 1284.11,456.03 1283.28,436.03 1273.5,416.5 Z"/></g>
<g><path style="opacity:1" fill="#7dc9d6" d="M 1290.5,418.5 C 1292.29,418.366 1293.96,418.699 1295.5,419.5C 1311.88,443.622 1312.71,468.288 1298,493.5C 1293.3,499.363 1288.14,504.697 1282.5,509.5C 1267.18,518.83 1250.52,522.164 1232.5,519.5C 1220.83,518.556 1209.5,516.056 1198.5,512C 1186.36,506.762 1174.36,501.262 1162.5,495.5C 1161.09,493.946 1159.42,492.612 1157.5,491.5C 1158.23,490.913 1159.23,490.913 1160.5,491.5C 1171.18,496.673 1182.18,501.007 1193.5,504.5C 1208.58,510.791 1224.42,514.124 1241,514.5C 1252.16,514.081 1262.66,511.415 1272.5,506.5C 1280.01,502.836 1286.17,497.502 1291,490.5C 1305.05,466.481 1304.88,442.481 1290.5,418.5 Z"/></g>
<g><path style="opacity:1" fill="#3dcbe3" d="M 575.5,396.5 C 576.167,396.5 576.833,396.5 577.5,396.5C 568.937,476.567 559.937,556.567 550.5,636.5C 539.249,606.663 533.915,575.663 534.5,543.5C 534.327,490.512 547.994,441.512 575.5,396.5 Z"/></g>
<g><path style="opacity:1" fill="#21bed6" d="M 725.5,417.5 C 725.5,419.167 725.5,420.833 725.5,422.5C 712.839,431.827 701.839,442.827 692.5,455.5C 689.197,459.651 686.03,463.985 683,468.5C 682.878,466.831 683.212,465.165 684,463.5C 693.823,444.512 707.656,429.179 725.5,417.5 Z"/></g>
<g><path style="opacity:1" fill="#0296b0" d="M 1295.5,419.5 C 1336.65,429.148 1360.81,454.815 1368,496.5C 1368.22,485.689 1367.05,475.022 1364.5,464.5C 1364.83,464.5 1365.17,464.5 1365.5,464.5C 1371.33,484.846 1370.67,505.012 1363.5,525C 1363.57,525.765 1363.9,526.265 1364.5,526.5C 1354.25,550.413 1338.25,569.413 1316.5,583.5C 1315.24,580.233 1314.08,576.899 1313,573.5C 1312.33,572.167 1311.67,572.167 1311,573.5C 1309.25,571.157 1309.42,569.157 1311.5,567.5C 1310.38,562.266 1309.55,562.266 1309,567.5C 1304.34,552.527 1299.84,537.527 1295.5,522.5C 1294.32,522.281 1293.32,522.614 1292.5,523.5C 1288.35,529.48 1283.35,534.646 1277.5,539C 1274.44,540.859 1271.44,542.692 1268.5,544.5C 1245.72,554.781 1222.38,556.115 1198.5,548.5C 1178.32,540.076 1159.65,529.076 1142.5,515.5C 1140.86,514.527 1139.53,513.194 1138.5,511.5C 1151.74,520.209 1165.41,528.376 1179.5,536C 1184.17,537.667 1188.83,539.333 1193.5,541C 1231.53,548.546 1263.36,537.713 1289,508.5C 1289.69,507.668 1289.52,507.002 1288.5,506.5C 1286.76,508.038 1284.76,509.038 1282.5,509.5C 1288.14,504.697 1293.3,499.363 1298,493.5C 1312.71,468.288 1311.88,443.622 1295.5,419.5 Z"/></g>
<g><path style="opacity:1" fill="#0d546e" d="M 1237.5,386.5 C 1260.16,387.235 1282.16,391.235 1303.5,398.5C 1334.31,410.975 1354.65,432.975 1364.5,464.5C 1367.05,475.022 1368.22,485.689 1368,496.5C 1360.81,454.815 1336.65,429.148 1295.5,419.5C 1293.96,418.699 1292.29,418.366 1290.5,418.5C 1285.06,417.116 1279.39,416.45 1273.5,416.5C 1264.75,402.4 1252.75,392.4 1237.5,386.5 Z"/></g>
<g><path style="opacity:1" fill="#40a0ad" d="M 987.5,416.5 C 992.481,420.476 997.481,424.476 1002.5,428.5C 1007.86,434.527 1013.53,440.194 1019.5,445.5C 1023.02,458.238 1026.86,470.905 1031,483.5C 1031.73,486.23 1031.56,488.897 1030.5,491.5C 1032.58,497.397 1034.24,503.397 1035.5,509.5C 1024.28,500.729 1013.28,491.729 1002.5,482.5C 1000.83,481.167 999.167,479.833 997.5,478.5C 997.611,477.883 997.944,477.383 998.5,477C 996.383,475.269 994.883,473.102 994,470.5C 991.988,462.113 992.155,453.779 994.5,445.5C 991.734,437.036 989.068,428.536 986.5,420C 986.989,418.862 987.322,417.695 987.5,416.5 Z"/></g>
<g><path style="opacity:1" fill="#1a657d" d="M 752.5,410.5 C 754.369,412.635 755.036,415.302 754.5,418.5C 730.299,425.06 709.632,437.393 692.5,455.5C 701.839,442.827 712.839,431.827 725.5,422.5C 734.127,417.687 743.127,413.687 752.5,410.5 Z"/></g>
<g><path style="opacity:1" fill="#41bac5" d="M 1048.5,431.5 C 1069.93,450.091 1090.93,469.258 1111.5,489C 1120.37,496.711 1129.37,504.211 1138.5,511.5C 1139.53,513.194 1140.86,514.527 1142.5,515.5C 1145.02,525.237 1147.86,534.904 1151,544.5C 1151.09,540.159 1151.09,535.826 1151,531.5C 1153.31,539.422 1155.81,547.256 1158.5,555C 1157.91,555.464 1157.24,555.631 1156.5,555.5C 1148.47,551.154 1140.47,546.821 1132.5,542.5C 1108.13,526.812 1085.8,508.479 1065.5,487.5C 1059.52,468.925 1053.86,450.258 1048.5,431.5 Z"/></g>
<g><path style="opacity:1" fill="#42a7b3" d="M 1019.5,445.5 C 1034.55,459.891 1049.89,473.891 1065.5,487.5C 1085.8,508.479 1108.13,526.812 1132.5,542.5C 1134.14,547.396 1134.98,552.396 1135,557.5C 1133.51,553.213 1132.18,548.88 1131,544.5C 1130.03,548.806 1129.19,553.14 1128.5,557.5C 1130.07,562.698 1131.73,567.864 1133.5,573C 1133.17,573.5 1132.83,574 1132.5,574.5C 1129.73,573.03 1126.89,571.697 1124,570.5C 1122.97,570.836 1122.47,571.503 1122.5,572.5C 1108.64,564.072 1094.97,555.406 1081.5,546.5C 1065.8,534.647 1050.47,522.313 1035.5,509.5C 1034.24,503.397 1032.58,497.397 1030.5,491.5C 1031.56,488.897 1031.73,486.23 1031,483.5C 1026.86,470.905 1023.02,458.238 1019.5,445.5 Z"/></g>
<g><path style="opacity:1" fill="#1ba0b4" d="M 1268.5,488.5 C 1269.73,489.152 1270.39,490.319 1270.5,492C 1271.21,496.837 1271.88,501.67 1272.5,506.5C 1262.66,511.415 1252.16,514.081 1241,514.5C 1224.42,514.124 1208.58,510.791 1193.5,504.5C 1209.46,506.938 1225.46,507.105 1241.5,505C 1252.46,502.508 1261.46,497.008 1268.5,488.5 Z"/></g>
<g><path style="opacity:1" fill="#0e9bb2" d="M 977.5,504.5 C 975.589,504.574 974.422,505.574 974,507.5C 973.667,507.167 973.333,506.833 973,506.5C 972.506,508.134 972.34,509.801 972.5,511.5C 970.379,511.325 968.379,511.659 966.5,512.5C 969.555,505.636 970.222,498.636 968.5,491.5C 970.459,486.248 972.959,481.248 976,476.5C 979.667,479.5 983.333,482.5 987,485.5C 984.915,492.337 981.748,498.671 977.5,504.5 Z"/></g>
<g><path style="opacity:1" fill="#0c9ab4" d="M 1162.5,495.5 C 1174.36,501.262 1186.36,506.762 1198.5,512C 1209.5,516.056 1220.83,518.556 1232.5,519.5C 1236.65,520.325 1240.98,520.825 1245.5,521C 1214.03,524.451 1186.36,515.951 1162.5,495.5 Z"/></g>
<g><path style="opacity:1" fill="#0ebfdd" d="M 991.5,506.5 C 1001.91,506.302 1010.91,509.635 1018.5,516.5C 1015.87,527.062 1011.87,537.062 1006.5,546.5C 987.767,575.76 965.767,602.594 940.5,627C 907.771,656.698 869.438,673.865 825.5,678.5C 823.5,678.5 821.5,678.5 819.5,678.5C 810.245,678.55 801.245,677.55 792.5,675.5C 821.007,676.54 847.674,670.04 872.5,656C 891.799,644.232 908.966,629.732 924,612.5C 949.77,579.303 972.27,543.97 991.5,506.5 Z"/></g>
<g><path style="opacity:1" fill="#1c536c" d="M 1002.5,482.5 C 1013.28,491.729 1024.28,500.729 1035.5,509.5C 1050.47,522.313 1065.8,534.647 1081.5,546.5C 1073.62,565.926 1064.95,584.926 1055.5,603.5C 1056.53,581.292 1052.03,560.292 1042,540.5C 1039.21,535.228 1035.71,530.562 1031.5,526.5C 1027.74,522.408 1023.41,519.074 1018.5,516.5C 1010.91,509.635 1001.91,506.302 991.5,506.5C 995.189,498.459 998.856,490.459 1002.5,482.5 Z"/></g>
<g><path style="opacity:1" fill="#26b1c3" d="M 968.5,491.5 C 970.222,498.636 969.555,505.636 966.5,512.5C 960.085,523.666 953.418,534.666 946.5,545.5C 946.815,541.629 946.482,537.962 945.5,534.5C 953.421,520.326 961.088,505.992 968.5,491.5 Z"/></g>
<g><path style="opacity:1" fill="#36b7ce" d="M 1031.5,526.5 C 1035.71,530.562 1039.21,535.228 1042,540.5C 1052.03,560.292 1056.53,581.292 1055.5,603.5C 1037.75,644.349 1015.92,682.682 990,718.5C 986.301,723.027 982.468,727.361 978.5,731.5C 982.046,687.58 986.712,643.58 992.5,599.5C 992.376,598.893 992.043,598.56 991.5,598.5C 995.472,591.517 999.472,584.517 1003.5,577.5C 1013.12,560.597 1022.45,543.597 1031.5,526.5 Z"/></g>
<g><path style="opacity:1" fill="#149eb5" d="M 1316.5,583.5 C 1305.99,590.422 1294.65,595.755 1282.5,599.5C 1280.89,596.014 1279.89,592.347 1279.5,588.5C 1267.75,592.084 1255.75,593.918 1243.5,594C 1242.81,592.933 1242.31,591.766 1242,590.5C 1241.51,592.134 1241.34,593.801 1241.5,595.5C 1239.5,595.5 1237.5,595.5 1235.5,595.5C 1234.48,590.757 1233.15,586.091 1231.5,581.5C 1232,581.167 1232.5,580.833 1233,580.5C 1243.47,581.632 1253.97,581.799 1264.5,581C 1270.01,580.483 1275.34,579.483 1280.5,578C 1276.81,567.256 1273.31,556.423 1270,545.5C 1269.62,544.944 1269.12,544.611 1268.5,544.5C 1271.44,542.692 1274.44,540.859 1277.5,539C 1283.35,534.646 1288.35,529.48 1292.5,523.5C 1293.32,522.614 1294.32,522.281 1295.5,522.5C 1299.84,537.527 1304.34,552.527 1309,567.5C 1309.55,562.266 1310.38,562.266 1311.5,567.5C 1309.42,569.157 1309.25,571.157 1311,573.5C 1311.67,572.167 1312.33,572.167 1313,573.5C 1314.08,576.899 1315.24,580.233 1316.5,583.5 Z"/></g>
<g><path style="opacity:1" fill="#0d87a5" d="M 698.5,636.5 C 718.029,653.435 740.362,665.435 765.5,672.5C 773.514,675.421 781.847,677.588 790.5,679C 786.848,679.499 783.182,679.665 779.5,679.5C 758.394,677.673 737.394,674.34 716.5,669.5C 704.248,666.638 692.248,662.971 680.5,658.5C 662.749,651.797 646.415,642.797 631.5,631.5C 629.733,617.301 627.733,603.134 625.5,589C 625.57,588.235 625.903,587.735 626.5,587.5C 627.75,590.067 628.917,592.733 630,595.5C 630.654,596.696 631.154,596.696 631.5,595.5C 623.874,576.757 621.374,557.424 624,537.5C 632.434,583.069 657.267,616.069 698.5,636.5 Z"/></g>
<g><path style="opacity:1" fill="#31b1c1" d="M 1142.5,515.5 C 1159.65,529.076 1178.32,540.076 1198.5,548.5C 1200.36,555.573 1202.52,562.573 1205,569.5C 1205,565.5 1205,561.5 1205,557.5C 1206.53,563.265 1208.37,568.932 1210.5,574.5C 1208.58,575.641 1206.58,575.808 1204.5,575C 1196.39,572.772 1188.39,570.272 1180.5,567.5C 1172.41,563.692 1164.41,559.692 1156.5,555.5C 1157.24,555.631 1157.91,555.464 1158.5,555C 1155.81,547.256 1153.31,539.422 1151,531.5C 1151.09,535.826 1151.09,540.159 1151,544.5C 1147.86,534.904 1145.02,525.237 1142.5,515.5 Z"/></g>
<g><path style="opacity:1" fill="#2ebbcb" d="M 1018.5,516.5 C 1023.41,519.074 1027.74,522.408 1031.5,526.5C 1022.45,543.597 1013.12,560.597 1003.5,577.5C 1001.76,572.607 1000.42,567.607 999.5,562.5C 1001.83,557.167 1004.17,551.833 1006.5,546.5C 1011.87,537.062 1015.87,527.062 1018.5,516.5 Z"/></g>
<g><path style="opacity:1" fill="#35a8b7" d="M 1132.5,542.5 C 1140.47,546.821 1148.47,551.154 1156.5,555.5C 1164.41,559.692 1172.41,563.692 1180.5,567.5C 1181.34,575.54 1182.51,583.54 1184,591.5C 1194.56,593.628 1205.23,595.295 1216,596.5C 1217.9,598.39 1219.07,600.724 1219.5,603.5C 1217.26,604.474 1214.92,604.808 1212.5,604.5C 1180.29,599.986 1150.29,589.319 1122.5,572.5C 1122.47,571.503 1122.97,570.836 1124,570.5C 1126.89,571.697 1129.73,573.03 1132.5,574.5C 1132.83,574 1133.17,573.5 1133.5,573C 1131.73,567.864 1130.07,562.698 1128.5,557.5C 1129.19,553.14 1130.03,548.806 1131,544.5C 1132.18,548.88 1133.51,553.213 1135,557.5C 1134.98,552.396 1134.14,547.396 1132.5,542.5 Z"/></g>
<g><path style="opacity:1" fill="#238598" d="M 977.5,504.5 C 966.836,524.506 955.169,543.839 942.5,562.5C 940.097,562.448 937.764,562.781 935.5,563.5C 939.68,557.806 943.346,551.806 946.5,545.5C 953.418,534.666 960.085,523.666 966.5,512.5C 968.379,511.659 970.379,511.325 972.5,511.5C 972.34,509.801 972.506,508.134 973,506.5C 973.333,506.833 973.667,507.167 974,507.5C 974.422,505.574 975.589,504.574 977.5,504.5 Z"/></g>
<g><path style="opacity:1" fill="#84dfee" d="M 1006.5,546.5 C 1004.17,551.833 1001.83,557.167 999.5,562.5C 994.833,569.833 990.167,577.167 985.5,584.5C 972.931,600.419 958.931,615.919 943.5,631C 922.091,649.714 897.757,663.38 870.5,672C 855.839,676.527 840.839,678.694 825.5,678.5C 869.438,673.865 907.771,656.698 940.5,627C 965.767,602.594 987.767,575.76 1006.5,546.5 Z"/></g>
<g><path style="opacity:1" fill="#23a7b9" d="M 1268.5,544.5 C 1269.12,544.611 1269.62,544.944 1270,545.5C 1273.31,556.423 1276.81,567.256 1280.5,578C 1275.34,579.483 1270.01,580.483 1264.5,581C 1253.97,581.799 1243.47,581.632 1233,580.5C 1232.5,580.833 1232,581.167 1231.5,581.5C 1233.15,586.091 1234.48,590.757 1235.5,595.5C 1237.5,595.5 1239.5,595.5 1241.5,595.5C 1241.34,593.801 1241.51,592.134 1242,590.5C 1242.31,591.766 1242.81,592.933 1243.5,594C 1255.75,593.918 1267.75,592.084 1279.5,588.5C 1279.89,592.347 1280.89,596.014 1282.5,599.5C 1259.38,606.151 1236.04,607.818 1212.5,604.5C 1214.92,604.808 1217.26,604.474 1219.5,603.5C 1219.07,600.724 1217.9,598.39 1216,596.5C 1205.23,595.295 1194.56,593.628 1184,591.5C 1182.51,583.54 1181.34,575.54 1180.5,567.5C 1188.39,570.272 1196.39,572.772 1204.5,575C 1206.58,575.808 1208.58,575.641 1210.5,574.5C 1208.37,568.932 1206.53,563.265 1205,557.5C 1205,561.5 1205,565.5 1205,569.5C 1202.52,562.573 1200.36,555.573 1198.5,548.5C 1222.38,556.115 1245.72,554.781 1268.5,544.5 Z"/></g>
<g><path style="opacity:1" fill="#47cad4" d="M 945.5,534.5 C 946.482,537.962 946.815,541.629 946.5,545.5C 943.346,551.806 939.68,557.806 935.5,563.5C 926.242,577.089 916.242,590.089 905.5,602.5C 889.982,618.601 871.982,631.268 851.5,640.5C 850.893,640.376 850.56,640.043 850.5,639.5C 871.426,628.749 889.593,614.416 905,596.5C 919.755,576.659 933.255,555.992 945.5,534.5 Z"/></g>
<g><path style="opacity:1" fill="#2d6779" d="M 942.5,562.5 C 932.607,578.289 921.274,592.956 908.5,606.5C 908.262,604.596 907.262,603.262 905.5,602.5C 916.242,590.089 926.242,577.089 935.5,563.5C 937.764,562.781 940.097,562.448 942.5,562.5 Z"/></g>
<g><path style="opacity:1" fill="#35b3c9" d="M 991.5,598.5 C 992.043,598.56 992.376,598.893 992.5,599.5C 986.712,643.58 982.046,687.58 978.5,731.5C 963.355,750.988 944.688,765.988 922.5,776.5C 924.723,755.662 927.056,734.828 929.5,714C 929.486,712.615 929.152,711.449 928.5,710.5C 936.439,702.727 944.272,694.727 952,686.5C 958.692,677.975 965.192,669.308 971.5,660.5C 964.371,667.121 957.037,674.287 949.5,682C 943.878,686.802 937.878,690.969 931.5,694.5C 932.589,684.124 933.922,673.791 935.5,663.5C 935.376,662.893 935.043,662.56 934.5,662.5C 948.175,651.158 960.509,638.491 971.5,624.5C 978.651,616.194 985.318,607.527 991.5,598.5 Z"/></g>
<g><path style="opacity:1" fill="#3bc5d2" d="M 999.5,562.5 C 1000.42,567.607 1001.76,572.607 1003.5,577.5C 999.472,584.517 995.472,591.517 991.5,598.5C 985.318,607.527 978.651,616.194 971.5,624.5C 970.571,619.382 969.238,614.382 967.5,609.5C 973.745,601.343 979.745,593.01 985.5,584.5C 990.167,577.167 994.833,569.833 999.5,562.5 Z"/></g>
<g><path style="opacity:1" fill="#32b8c7" d="M 1342.5,580.5 C 1343.46,581.721 1343.3,583.054 1342,584.5C 1326.46,602.524 1307.29,615.191 1284.5,622.5C 1286.18,619.69 1285.84,617.357 1283.5,615.5C 1306.43,609.207 1326.1,597.541 1342.5,580.5 Z"/></g>
<g><path style="opacity:1" fill="#58d7e7" d="M 579.5,575.5 C 585.357,595.74 593.357,615.074 603.5,633.5C 600.24,660.176 596.906,686.842 593.5,713.5C 583.1,701.713 574.433,688.713 567.5,674.5C 571.363,641.388 575.363,608.388 579.5,575.5 Z"/></g>
<g><path style="opacity:1" fill="#29cbe1" d="M 575.5,555.5 C 585.406,587.323 604.073,612.656 631.5,631.5C 646.415,642.797 662.749,651.797 680.5,658.5C 688.16,681.156 695.826,703.823 703.5,726.5C 701.287,725.227 698.954,724.227 696.5,723.5C 690.7,720.096 685.033,716.429 679.5,712.5C 673.658,708.746 667.991,704.746 662.5,700.5C 648.536,689.536 635.869,677.203 624.5,663.5C 617.468,653.477 610.468,643.477 603.5,633.5C 593.357,615.074 585.357,595.74 579.5,575.5C 577.271,569.023 575.938,562.356 575.5,555.5 Z"/></g>
<g><path style="opacity:1" fill="#13455e" d="M 1155.5,607.5 C 1165.1,612.594 1175.1,616.928 1185.5,620.5C 1185.5,622.5 1185.5,624.5 1185.5,626.5C 1173.87,621.019 1162.87,614.519 1152.5,607C 1153.75,606.26 1154.75,606.427 1155.5,607.5 Z"/></g>
<g><path style="opacity:1" fill="#2c94a5" d="M 1264.5,635.5 C 1263.5,635.5 1262.5,635.5 1261.5,635.5C 1261.5,632.833 1261.5,630.167 1261.5,627.5C 1269.27,626.214 1276.93,624.547 1284.5,622.5C 1307.29,615.191 1326.46,602.524 1342,584.5C 1343.3,583.054 1343.46,581.721 1342.5,580.5C 1347.22,575.273 1351.39,569.607 1355,563.5C 1355.65,562.304 1356.15,562.304 1356.5,563.5C 1338.16,603.326 1307.5,627.326 1264.5,635.5 Z"/></g>
<g><path style="opacity:1" fill="#25bdd2" d="M 1155.5,607.5 C 1171.42,612.04 1187.42,615.706 1203.5,618.5C 1201.83,618.5 1200.17,618.5 1198.5,618.5C 1198.5,620.167 1198.5,621.833 1198.5,623.5C 1194.13,622.656 1189.79,621.656 1185.5,620.5C 1175.1,616.928 1165.1,612.594 1155.5,607.5 Z"/></g>
<g><path style="opacity:1" fill="#1d4359" d="M 905.5,602.5 C 907.262,603.262 908.262,604.596 908.5,606.5C 889.265,625.787 866.265,638.287 839.5,644C 843.236,642.59 846.902,641.09 850.5,639.5C 850.56,640.043 850.893,640.376 851.5,640.5C 871.982,631.268 889.982,618.601 905.5,602.5 Z"/></g>
<g><path style="opacity:1" fill="#49d2dc" d="M 1283.5,615.5 C 1285.84,617.357 1286.18,619.69 1284.5,622.5C 1276.93,624.547 1269.27,626.214 1261.5,627.5C 1251.22,628.452 1240.89,628.786 1230.5,628.5C 1219.64,627.913 1208.98,626.246 1198.5,623.5C 1198.5,621.833 1198.5,620.167 1198.5,618.5C 1200.17,618.5 1201.83,618.5 1203.5,618.5C 1230.35,621.951 1257.01,620.951 1283.5,615.5 Z"/></g>
<g><path style="opacity:1" fill="#236377" d="M 1185.5,620.5 C 1189.79,621.656 1194.13,622.656 1198.5,623.5C 1208.98,626.246 1219.64,627.913 1230.5,628.5C 1230.5,631.5 1230.5,634.5 1230.5,637.5C 1237.83,637.5 1245.17,637.5 1252.5,637.5C 1229.38,639.591 1207.04,635.924 1185.5,626.5C 1185.5,624.5 1185.5,622.5 1185.5,620.5 Z"/></g>
<g><path style="opacity:1" fill="#378494" d="M 1261.5,627.5 C 1261.5,630.167 1261.5,632.833 1261.5,635.5C 1262.5,635.5 1263.5,635.5 1264.5,635.5C 1260.71,636.617 1256.71,637.283 1252.5,637.5C 1245.17,637.5 1237.83,637.5 1230.5,637.5C 1230.5,634.5 1230.5,631.5 1230.5,628.5C 1240.89,628.786 1251.22,628.452 1261.5,627.5 Z"/></g>
<g><path style="opacity:1" fill="#47cfda" d="M 967.5,609.5 C 969.238,614.382 970.571,619.382 971.5,624.5C 960.509,638.491 948.175,651.158 934.5,662.5C 934.167,662.5 933.833,662.5 933.5,662.5C 932.232,657.03 930.565,651.696 928.5,646.5C 942.487,635.179 955.487,622.846 967.5,609.5 Z"/></g>
<g><path style="opacity:1" fill="#64dce8" d="M 603.5,633.5 C 610.468,643.477 617.468,653.477 624.5,663.5C 620.418,688.222 617.418,713.222 615.5,738.5C 607.451,730.785 600.118,722.452 593.5,713.5C 596.906,686.842 600.24,660.176 603.5,633.5 Z"/></g>
<g><path style="opacity:1" fill="#35d0e2" d="M 680.5,658.5 C 692.248,662.971 704.248,666.638 716.5,669.5C 724.901,693.704 732.901,718.037 740.5,742.5C 739.167,742.167 737.833,741.833 736.5,741.5C 729.989,738.658 723.322,735.991 716.5,733.5C 712.294,730.898 707.961,728.564 703.5,726.5C 695.826,703.823 688.16,681.156 680.5,658.5 Z"/></g>
<g><path style="opacity:1" fill="#a3eaef" d="M 985.5,584.5 C 979.745,593.01 973.745,601.343 967.5,609.5C 955.487,622.846 942.487,635.179 928.5,646.5C 897.905,668.92 863.572,679.92 825.5,679.5C 823.265,679.795 821.265,679.461 819.5,678.5C 821.5,678.5 823.5,678.5 825.5,678.5C 840.839,678.694 855.839,676.527 870.5,672C 897.757,663.38 922.091,649.714 943.5,631C 958.931,615.919 972.931,600.419 985.5,584.5 Z"/></g>
<g><path style="opacity:1" fill="#57dde4" d="M 928.5,646.5 C 930.565,651.696 932.232,657.03 933.5,662.5C 907.231,683.977 877.897,700.31 845.5,711.5C 841.88,701.259 838.546,690.926 835.5,680.5C 831.958,680.813 828.625,680.479 825.5,679.5C 863.572,679.92 897.905,668.92 928.5,646.5 Z"/></g>
<g><path style="opacity:1" fill="#3fd4e3" d="M 716.5,669.5 C 737.394,674.34 758.394,677.673 779.5,679.5C 777.801,679.34 776.134,679.506 774.5,680C 783.389,703.999 791.889,728.166 800,752.5C 802.334,754.02 804.834,755.02 807.5,755.5C 784.53,754.174 762.197,749.841 740.5,742.5C 732.901,718.037 724.901,693.704 716.5,669.5 Z"/></g>
<g><path style="opacity:1" fill="#49d9e4" d="M 765.5,672.5 C 774.375,674.529 783.375,675.529 792.5,675.5C 801.245,677.55 810.245,678.55 819.5,678.5C 821.265,679.461 823.265,679.795 825.5,679.5C 828.625,680.479 831.958,680.813 835.5,680.5C 838.546,690.926 841.88,701.259 845.5,711.5C 828.713,718.596 811.38,724.429 793.5,729C 812.624,730.164 831.624,729.331 850.5,726.5C 853.364,733.757 856.03,741.09 858.5,748.5C 842.057,753.803 825.057,756.136 807.5,755.5C 804.834,755.02 802.334,754.02 800,752.5C 791.889,728.166 783.389,703.999 774.5,680C 776.134,679.506 777.801,679.34 779.5,679.5C 783.182,679.665 786.848,679.499 790.5,679C 781.847,677.588 773.514,675.421 765.5,672.5 Z"/></g>
<g><path style="opacity:1" fill="#76e3e9" d="M 624.5,663.5 C 635.869,677.203 648.536,689.536 662.5,700.5C 660.718,723.742 658.052,746.742 654.5,769.5C 640.216,760.849 627.216,750.515 615.5,738.5C 617.418,713.222 620.418,688.222 624.5,663.5 Z"/></g>
<g><path style="opacity:1" fill="#33adc2" d="M 933.5,662.5 C 933.833,662.5 934.167,662.5 934.5,662.5C 935.043,662.56 935.376,662.893 935.5,663.5C 933.922,673.791 932.589,684.124 931.5,694.5C 907.128,711.41 880.128,722.077 850.5,726.5C 831.624,729.331 812.624,730.164 793.5,729C 811.38,724.429 828.713,718.596 845.5,711.5C 877.897,700.31 907.231,683.977 933.5,662.5 Z"/></g>
<g><path style="opacity:1" fill="#6edbe2" d="M 662.5,700.5 C 667.991,704.746 673.658,708.746 679.5,712.5C 677.606,735.212 675.273,757.879 672.5,780.5C 665.967,777.619 659.967,773.953 654.5,769.5C 658.052,746.742 660.718,723.742 662.5,700.5 Z"/></g>
<g><path style="opacity:1" fill="#56dde3" d="M 928.5,710.5 C 912.893,723.91 895.559,734.743 876.5,743C 870.697,745.546 864.697,747.379 858.5,748.5C 856.03,741.09 853.364,733.757 850.5,726.5C 880.128,722.077 907.128,711.41 931.5,694.5C 937.878,690.969 943.878,686.802 949.5,682C 957.037,674.287 964.371,667.121 971.5,660.5C 965.192,669.308 958.692,677.975 952,686.5C 944.272,694.727 936.439,702.727 928.5,710.5 Z"/></g>
<g><path style="opacity:1" fill="#62d1dc" d="M 679.5,712.5 C 685.033,716.429 690.7,720.096 696.5,723.5C 695.778,723.918 695.278,724.584 695,725.5C 693,743.5 691,761.5 689,779.5C 688.507,782.675 687.34,785.341 685.5,787.5C 680.68,785.926 676.347,783.593 672.5,780.5C 675.273,757.879 677.606,735.212 679.5,712.5 Z"/></g>
<g><path style="opacity:1" fill="#54c6d3" d="M 696.5,723.5 C 698.954,724.227 701.287,725.227 703.5,726.5C 707.961,728.564 712.294,730.898 716.5,733.5C 713.612,753.304 711.112,773.304 709,793.5C 708.768,794.737 708.268,795.737 707.5,796.5C 699.769,794.262 692.435,791.262 685.5,787.5C 687.34,785.341 688.507,782.675 689,779.5C 691,761.5 693,743.5 695,725.5C 695.278,724.584 695.778,723.918 696.5,723.5 Z"/></g>
<g><path style="opacity:1" fill="#44b9cb" d="M 716.5,733.5 C 723.322,735.991 729.989,738.658 736.5,741.5C 733.45,761.277 731.117,781.277 729.5,801.5C 728.167,801.5 726.833,801.5 725.5,801.5C 719.181,800.611 713.181,798.944 707.5,796.5C 708.268,795.737 708.768,794.737 709,793.5C 711.112,773.304 713.612,753.304 716.5,733.5 Z"/></g>
<g><path style="opacity:1" fill="#33acc1" d="M 928.5,710.5 C 929.152,711.449 929.486,712.615 929.5,714C 927.056,734.828 924.723,755.662 922.5,776.5C 909.425,784.481 895.425,790.647 880.5,795C 835.71,809.375 790.043,813.041 743.5,806C 737.235,805.053 731.235,803.553 725.5,801.5C 726.833,801.5 728.167,801.5 729.5,801.5C 731.117,781.277 733.45,761.277 736.5,741.5C 737.833,741.833 739.167,742.167 740.5,742.5C 762.197,749.841 784.53,754.174 807.5,755.5C 825.057,756.136 842.057,753.803 858.5,748.5C 864.697,747.379 870.697,745.546 876.5,743C 895.559,734.743 912.893,723.91 928.5,710.5 Z"/></g>
</svg>
